M48
; DRILL file {KiCad (5.1.6-0-10_14)} date Monday, October 12, 2020 at 01:28:11 AM
; FORMAT={-:-/ absolute / metric / decimal}
; #@! TF.CreationDate,2020-10-12T01:28:11+09:00
; #@! TF.GenerationSoftware,Kicad,Pcbnew,(5.1.6-0-10_14)
FMAT,2
METRIC
T1C0.300
T2C0.500
T3C0.600
T4C0.800
T5C0.990
T6C1.000
T7C1.090
T8C1.300
T9C1.500
T10C2.100
T11C3.200
T12C1.800
T13C2.700
%
G90
G05
T1
X53.884Y-105.686
X55.034Y-113.09
X59.669Y-87.897
X60.65Y-145.175
X61.565Y-70.896
X61.582Y-68.45
X63.292Y-135.744
X67.628Y-69.706
X69.599Y-131.061
X70.325Y-70.33
X71.255Y-78.226
X71.468Y-60.484
X71.489Y-74.741
X72.502Y-110.924
X73.289Y-94.949
X74.892Y-94.967
X76.022Y-60.428
X76.744Y-106.447
X77.014Y-107.425
X77.274Y-88.976
X78.527Y-127.317
X79.568Y-113.375
X79.605Y-99.074
X79.808Y-108.097
X80.767Y-109.034
X81.357Y-128.596
X81.891Y-99.058
X82.252Y-109.462
X82.94Y-103.214
X83.147Y-106.524
X83.288Y-109.731
X83.395Y-105.124
X84.229Y-110.195
X84.335Y-66.409
X84.36Y-105.452
X84.432Y-106.938
X85.076Y-88.335
X85.148Y-75.435
X85.318Y-103.18
X85.777Y-114.016
X85.932Y-105.888
X86.196Y-83.905
X87.129Y-113.424
X88.481Y-109.961
X88.727Y-92.92
X88.777Y-102.351
X89.19Y-110.57
X89.597Y-90.04
X89.722Y-72.566
X89.788Y-76.198
X89.861Y-92.937
X89.864Y-94.842
X89.985Y-99.613
X90.888Y-107.664
X91.906Y-110.49
X91.906Y-94.829
X91.948Y-106.085
X92.686Y-63.722
X92.847Y-107.997
X93.039Y-118.469
X93.518Y-109.963
X94.651Y-67.825
X96.499Y-92.86
X96.575Y-87.59
X97.168Y-111.142
X99.461Y-112.296
X99.614Y-92.434
X100.324Y-81.588
X100.566Y-84.06
X101.431Y-64.296
X102.059Y-70.605
X104.52Y-90.48
X105.831Y-127.003
X106.23Y-106.348
X107.755Y-98.264
X107.801Y-67.464
X107.958Y-110.263
X109.075Y-102.483
X110.573Y-71.628
X111.209Y-136.359
X111.717Y-77.5
X112.034Y-95.34
X113.038Y-103.016
X113.424Y-116.961
X113.889Y-136.087
X113.99Y-82.737
X114.92Y-115.488
X115.639Y-107.068
X117.504Y-98.939
X117.508Y-95.485
X118.524Y-134.248
X118.613Y-70.489
X119.18Y-101.546
X119.914Y-132.816
X119.924Y-134.284
X120.955Y-96.275
X121.481Y-95.056
X122.195Y-101.553
X123.508Y-107.187
X124.374Y-69.494
X124.518Y-107.386
X124.589Y-111.44
X125.635Y-106.153
X126.87Y-106.038
X127.851Y-111.183
X128.13Y-105.181
X128.796Y-95.176
X129.268Y-74.881
X129.528Y-90.459
X129.79Y-106.677
X130.694Y-106.812
X131.331Y-93.105
X132.814Y-96.392
X140.216Y-92.841
X140.683Y-86.689
X140.952Y-93.883
X140.965Y-91.64
X144.237Y-90.7
X144.466Y-89.304
X145.471Y-94.97
X145.524Y-88.246
X146.101Y-109.25
X146.577Y-128.606
X147.369Y-78.465
X147.561Y-94.97
X148.848Y-71.89
X151.123Y-97.177
X151.299Y-126.947
X153.574Y-69.864
X154.851Y-94.9
X155.438Y-65.645
X155.949Y-73.756
X156.228Y-71.914
X157.374Y-94.017
X157.62Y-71.899
X158.327Y-95.233
X159.465Y-65.586
X160.099Y-71.437
X165.662Y-139.623
X167.401Y-138.361
X171.402Y-139.689
X173.36Y-56.021
T2
X56.094Y-45.668
X56.797Y-43.971
X56.797Y-47.365
X58.494Y-43.268
X58.494Y-48.068
X60.191Y-43.971
X60.191Y-47.365
X60.894Y-45.668
T3
X64.128Y-68.62
X64.128Y-70.62
X76.586Y-56.598
X78.586Y-56.598
X73.835Y-68.533
X73.835Y-70.533
X60.371Y-56.598
X62.371Y-56.598
T4
X110.395Y-59.311
X110.395Y-61.311
X142.323Y-59.163
X142.323Y-61.163
X119.491Y-59.328
X119.491Y-61.328
X88.475Y-59.367
X88.475Y-61.367
X64.345Y-104.442
X64.345Y-109.442
X106.474Y-116.854
X106.474Y-121.854
X101.502Y-102.685
X101.502Y-107.565
T5
X64.983Y-146.864
X69.483Y-146.864
T6
X139.042Y-138.122
X139.042Y-140.662
X141.582Y-138.122
X141.582Y-140.662
X144.122Y-138.122
X144.122Y-140.662
X146.662Y-138.122
X146.662Y-140.662
X149.202Y-138.122
X149.202Y-140.662
X58.279Y-96.662
X63.279Y-96.662
X148.57Y-81.348
X151.11Y-81.348
X162.862Y-107.614
X162.862Y-110.154
X162.862Y-112.694
X162.862Y-115.234
X162.862Y-117.774
X162.862Y-120.314
X162.862Y-122.854
X162.862Y-125.394
X162.862Y-127.934
X162.862Y-130.474
X165.402Y-107.614
X165.402Y-110.154
X165.402Y-112.694
X165.402Y-115.234
X165.402Y-117.774
X165.402Y-120.314
X165.402Y-122.854
X165.402Y-125.394
X165.402Y-127.934
X165.402Y-130.474
X98.552Y-139.003
X98.552Y-141.543
X155.674Y-81.317
X158.214Y-81.317
X105.983Y-144.083
X105.983Y-146.583
X108.483Y-144.083
X108.483Y-146.583
X110.983Y-144.083
X110.983Y-146.583
X118.608Y-138.876
X118.608Y-141.416
X72.672Y-116.174
X72.672Y-118.714
X147.866Y-87.38
X147.866Y-89.92
X150.406Y-87.38
X150.406Y-89.92
X152.946Y-87.38
X152.946Y-89.92
X155.486Y-87.38
X155.486Y-89.92
X158.026Y-87.38
X158.026Y-89.92
X160.566Y-87.38
X160.566Y-89.92
X163.106Y-87.38
X163.106Y-89.92
X165.646Y-87.38
X165.646Y-89.92
X168.186Y-87.38
X168.186Y-89.92
X170.726Y-87.38
X170.726Y-89.92
X81.983Y-144.116
X81.983Y-146.616
X84.483Y-144.116
X84.483Y-146.616
X86.983Y-144.116
X86.983Y-146.616
X134.773Y-73.867
X134.773Y-76.407
X134.773Y-78.947
X134.773Y-81.487
X134.773Y-84.027
X134.773Y-86.567
X134.773Y-89.107
X134.773Y-91.647
X137.313Y-73.867
X137.313Y-76.407
X137.313Y-78.947
X137.313Y-81.487
X137.313Y-84.027
X137.313Y-86.567
X137.313Y-89.107
X137.313Y-91.647
X134.862Y-107.614
X134.862Y-110.154
X134.862Y-112.694
X134.862Y-115.234
X134.862Y-117.774
X134.862Y-120.314
X134.862Y-122.854
X134.862Y-125.394
X134.862Y-127.934
X134.862Y-130.474
X137.402Y-107.614
X137.402Y-110.154
X137.402Y-112.694
X137.402Y-115.234
X137.402Y-117.774
X137.402Y-120.314
X137.402Y-122.854
X137.402Y-125.394
X137.402Y-127.934
X137.402Y-130.474
T7
X54.483Y-133.502
X54.483Y-136.042
X54.483Y-138.582
X54.483Y-143.662
X125.483Y-133.425
X125.483Y-135.965
X125.483Y-138.505
X125.483Y-143.585
T8
X63.723Y-144.374
X70.733Y-144.374
T9
X57.784Y-124.59
X57.784Y-127.09
X57.784Y-129.59
X58.284Y-133.34
X59.784Y-131.09
X60.034Y-124.59
X61.034Y-133.34
X62.534Y-124.59
X62.534Y-131.09
X63.784Y-133.34
X65.034Y-124.59
X65.034Y-131.09
X66.534Y-133.34
X67.284Y-122.09
X67.284Y-124.59
X67.284Y-127.09
X67.284Y-129.59
T10
X103.733Y-140.783
X113.233Y-140.783
X79.733Y-140.816
X89.233Y-140.816
T11
X173.238Y-148.013
X58.494Y-45.668
X46.388Y-148.036
X173.216Y-45.666
T13
X171.783Y-62.588
X171.783Y-131.588
X47.783Y-131.588
X47.783Y-62.588
T6
G00X80.805Y-50.946
M15
G01X80.805Y-49.446
M16
G05
G00X150.805Y-50.882
M15
G01X150.805Y-49.382
M16
G05
G00X94.805Y-50.882
M15
G01X94.805Y-49.382
M16
G05
G00X108.805Y-50.882
M15
G01X108.805Y-49.382
M16
G05
G00X45.821Y-52.085
M15
G01X45.821Y-54.085
M16
G05
G00X51.521Y-50.085
M15
G01X49.521Y-50.085
M16
G05
G00X51.521Y-56.085
M15
G01X49.521Y-56.085
M16
G05
G00X136.805Y-50.882
M15
G01X136.805Y-49.382
M16
G05
G00X66.805Y-50.882
M15
G01X66.805Y-49.382
M16
G05
G00X122.805Y-50.882
M15
G01X122.805Y-49.382
M16
G05
G00X164.805Y-50.882
M15
G01X164.805Y-49.382
M16
G05
T8
G00X136.205Y-46.132
M15
G01X137.405Y-46.132
M16
G05
G00X66.205Y-46.132
M15
G01X67.405Y-46.132
M16
G05
G00X122.205Y-46.132
M15
G01X123.405Y-46.132
M16
G05
G00X164.205Y-46.132
M15
G01X165.405Y-46.132
M16
G05
G00X80.205Y-46.196
M15
G01X81.405Y-46.196
M16
G05
G00X150.205Y-46.132
M15
G01X151.405Y-46.132
M16
G05
G00X94.205Y-46.132
M15
G01X95.405Y-46.132
M16
G05
G00X108.205Y-46.132
M15
G01X109.405Y-46.132
M16
G05
T12
G00X62.555Y-42.132
M15
G01X62.555Y-43.032
M16
G05
G00X71.055Y-42.132
M15
G01X71.055Y-43.032
M16
G05
G00X118.555Y-42.132
M15
G01X118.555Y-43.032
M16
G05
G00X127.055Y-42.132
M15
G01X127.055Y-43.032
M16
G05
G00X160.555Y-42.132
M15
G01X160.555Y-43.032
M16
G05
G00X169.055Y-42.132
M15
G01X169.055Y-43.032
M16
G05
G00X76.555Y-42.196
M15
G01X76.555Y-43.096
M16
G05
G00X85.055Y-42.196
M15
G01X85.055Y-43.096
M16
G05
G00X146.555Y-42.132
M15
G01X146.555Y-43.032
M16
G05
G00X155.055Y-42.132
M15
G01X155.055Y-43.032
M16
G05
G00X90.555Y-42.132
M15
G01X90.555Y-43.032
M16
G05
G00X99.055Y-42.132
M15
G01X99.055Y-43.032
M16
G05
G00X104.555Y-42.132
M15
G01X104.555Y-43.032
M16
G05
G00X113.055Y-42.132
M15
G01X113.055Y-43.032
M16
G05
G00X132.555Y-42.132
M15
G01X132.555Y-43.032
M16
G05
G00X141.055Y-42.132
M15
G01X141.055Y-43.032
M16
G05
T0
M30
