G04 #@! TF.GenerationSoftware,KiCad,Pcbnew,(5.1.6-0-10_14)*
G04 #@! TF.CreationDate,2020-10-12T01:28:03+09:00*
G04 #@! TF.ProjectId,FreeDSP_SMD_AB_plus,46726565-4453-4505-9f53-4d445f41425f,rev?*
G04 #@! TF.SameCoordinates,Original*
G04 #@! TF.FileFunction,Legend,Bot*
G04 #@! TF.FilePolarity,Positive*
%FSLAX46Y46*%
G04 Gerber Fmt 4.6, Leading zero omitted, Abs format (unit mm)*
G04 Created by KiCad (PCBNEW (5.1.6-0-10_14)) date 2020-10-12 01:28:03*
%MOMM*%
%LPD*%
G01*
G04 APERTURE LIST*
%ADD10C,0.200000*%
%ADD11C,0.300000*%
%ADD12C,0.150000*%
G04 APERTURE END LIST*
D10*
X70815323Y-118351800D02*
X70891514Y-118313704D01*
X71005800Y-118313704D01*
X71120085Y-118351800D01*
X71196276Y-118427990D01*
X71234371Y-118504180D01*
X71272466Y-118656561D01*
X71272466Y-118770847D01*
X71234371Y-118923228D01*
X71196276Y-118999419D01*
X71120085Y-119075609D01*
X71005800Y-119113704D01*
X70929609Y-119113704D01*
X70815323Y-119075609D01*
X70777228Y-119037514D01*
X70777228Y-118770847D01*
X70929609Y-118770847D01*
X70434371Y-119113704D02*
X70434371Y-118313704D01*
X69977228Y-119113704D01*
X69977228Y-118313704D01*
X69596276Y-119113704D02*
X69596276Y-118313704D01*
X69405800Y-118313704D01*
X69291514Y-118351800D01*
X69215323Y-118427990D01*
X69177228Y-118504180D01*
X69139133Y-118656561D01*
X69139133Y-118770847D01*
X69177228Y-118923228D01*
X69215323Y-118999419D01*
X69291514Y-119075609D01*
X69405800Y-119113704D01*
X69596276Y-119113704D01*
X165680582Y-93817763D02*
X165680582Y-94084430D01*
X165261535Y-94084430D02*
X166061535Y-94084430D01*
X166061535Y-93703478D01*
X165261535Y-92941573D02*
X165642487Y-93208240D01*
X165261535Y-93398716D02*
X166061535Y-93398716D01*
X166061535Y-93093954D01*
X166023440Y-93017763D01*
X165985344Y-92979668D01*
X165909154Y-92941573D01*
X165794868Y-92941573D01*
X165718678Y-92979668D01*
X165680582Y-93017763D01*
X165642487Y-93093954D01*
X165642487Y-93398716D01*
X165680582Y-92598716D02*
X165680582Y-92332049D01*
X165261535Y-92217763D02*
X165261535Y-92598716D01*
X166061535Y-92598716D01*
X166061535Y-92217763D01*
X165680582Y-91874906D02*
X165680582Y-91608240D01*
X165261535Y-91493954D02*
X165261535Y-91874906D01*
X166061535Y-91874906D01*
X166061535Y-91493954D01*
X168106282Y-93690763D02*
X168106282Y-93957430D01*
X167687235Y-93957430D02*
X168487235Y-93957430D01*
X168487235Y-93576478D01*
X167687235Y-92814573D02*
X168068187Y-93081240D01*
X167687235Y-93271716D02*
X168487235Y-93271716D01*
X168487235Y-92966954D01*
X168449140Y-92890763D01*
X168411044Y-92852668D01*
X168334854Y-92814573D01*
X168220568Y-92814573D01*
X168144378Y-92852668D01*
X168106282Y-92890763D01*
X168068187Y-92966954D01*
X168068187Y-93271716D01*
X168106282Y-92471716D02*
X168106282Y-92205049D01*
X167687235Y-92090763D02*
X167687235Y-92471716D01*
X168487235Y-92471716D01*
X168487235Y-92090763D01*
X168106282Y-91747906D02*
X168106282Y-91481240D01*
X167687235Y-91366954D02*
X167687235Y-91747906D01*
X168487235Y-91747906D01*
X168487235Y-91366954D01*
D11*
X58104965Y-150014511D02*
X58104965Y-148514511D01*
X57533537Y-148514511D01*
X57390680Y-148585940D01*
X57319251Y-148657368D01*
X57247822Y-148800225D01*
X57247822Y-149014511D01*
X57319251Y-149157368D01*
X57390680Y-149228797D01*
X57533537Y-149300225D01*
X58104965Y-149300225D01*
X56319251Y-148514511D02*
X56033537Y-148514511D01*
X55890680Y-148585940D01*
X55747822Y-148728797D01*
X55676394Y-149014511D01*
X55676394Y-149514511D01*
X55747822Y-149800225D01*
X55890680Y-149943082D01*
X56033537Y-150014511D01*
X56319251Y-150014511D01*
X56462108Y-149943082D01*
X56604965Y-149800225D01*
X56676394Y-149514511D01*
X56676394Y-149014511D01*
X56604965Y-148728797D01*
X56462108Y-148585940D01*
X56319251Y-148514511D01*
X55176394Y-148514511D02*
X54819251Y-150014511D01*
X54533537Y-148943082D01*
X54247822Y-150014511D01*
X53890680Y-148514511D01*
X53319251Y-149228797D02*
X52819251Y-149228797D01*
X52604965Y-150014511D02*
X53319251Y-150014511D01*
X53319251Y-148514511D01*
X52604965Y-148514511D01*
X51104965Y-150014511D02*
X51604965Y-149300225D01*
X51962108Y-150014511D02*
X51962108Y-148514511D01*
X51390680Y-148514511D01*
X51247822Y-148585940D01*
X51176394Y-148657368D01*
X51104965Y-148800225D01*
X51104965Y-149014511D01*
X51176394Y-149157368D01*
X51247822Y-149228797D01*
X51390680Y-149300225D01*
X51962108Y-149300225D01*
X74727402Y-57028340D02*
X74013117Y-57028340D01*
X74870260Y-57456911D02*
X74370260Y-55956911D01*
X73870260Y-57456911D01*
X73370260Y-57456911D02*
X73370260Y-55956911D01*
X73013117Y-55956911D01*
X72798831Y-56028340D01*
X72655974Y-56171197D01*
X72584545Y-56314054D01*
X72513117Y-56599768D01*
X72513117Y-56814054D01*
X72584545Y-57099768D01*
X72655974Y-57242625D01*
X72798831Y-57385482D01*
X73013117Y-57456911D01*
X73370260Y-57456911D01*
X71013117Y-57314054D02*
X71084545Y-57385482D01*
X71298831Y-57456911D01*
X71441688Y-57456911D01*
X71655974Y-57385482D01*
X71798831Y-57242625D01*
X71870260Y-57099768D01*
X71941688Y-56814054D01*
X71941688Y-56599768D01*
X71870260Y-56314054D01*
X71798831Y-56171197D01*
X71655974Y-56028340D01*
X71441688Y-55956911D01*
X71298831Y-55956911D01*
X71084545Y-56028340D01*
X71013117Y-56099768D01*
X116949514Y-57637251D02*
X116949514Y-56137251D01*
X116592371Y-56137251D01*
X116378085Y-56208680D01*
X116235228Y-56351537D01*
X116163800Y-56494394D01*
X116092371Y-56780108D01*
X116092371Y-56994394D01*
X116163800Y-57280108D01*
X116235228Y-57422965D01*
X116378085Y-57565822D01*
X116592371Y-57637251D01*
X116949514Y-57637251D01*
X115520942Y-57208680D02*
X114806657Y-57208680D01*
X115663800Y-57637251D02*
X115163800Y-56137251D01*
X114663800Y-57637251D01*
X113306657Y-57494394D02*
X113378085Y-57565822D01*
X113592371Y-57637251D01*
X113735228Y-57637251D01*
X113949514Y-57565822D01*
X114092371Y-57422965D01*
X114163800Y-57280108D01*
X114235228Y-56994394D01*
X114235228Y-56780108D01*
X114163800Y-56494394D01*
X114092371Y-56351537D01*
X113949514Y-56208680D01*
X113735228Y-56137251D01*
X113592371Y-56137251D01*
X113378085Y-56208680D01*
X113306657Y-56280108D01*
D12*
X83454440Y-55457540D02*
X64036140Y-55368640D01*
X139733220Y-55429600D02*
X92197120Y-55434680D01*
X146865540Y-55475320D02*
X168389500Y-55475320D01*
D11*
X164244205Y-57814742D02*
X164029920Y-57886171D01*
X163672777Y-57886171D01*
X163529920Y-57814742D01*
X163458491Y-57743314D01*
X163387062Y-57600457D01*
X163387062Y-57457600D01*
X163458491Y-57314742D01*
X163529920Y-57243314D01*
X163672777Y-57171885D01*
X163958491Y-57100457D01*
X164101348Y-57029028D01*
X164172777Y-56957600D01*
X164244205Y-56814742D01*
X164244205Y-56671885D01*
X164172777Y-56529028D01*
X164101348Y-56457600D01*
X163958491Y-56386171D01*
X163601348Y-56386171D01*
X163387062Y-56457600D01*
X162744205Y-57886171D02*
X162744205Y-56386171D01*
X162387062Y-56386171D01*
X162172777Y-56457600D01*
X162029920Y-56600457D01*
X161958491Y-56743314D01*
X161887062Y-57029028D01*
X161887062Y-57243314D01*
X161958491Y-57529028D01*
X162029920Y-57671885D01*
X162172777Y-57814742D01*
X162387062Y-57886171D01*
X162744205Y-57886171D01*
X161315634Y-57457600D02*
X160601348Y-57457600D01*
X161458491Y-57886171D02*
X160958491Y-56386171D01*
X160458491Y-57886171D01*
X160172777Y-56386171D02*
X159315634Y-56386171D01*
X159744205Y-57886171D02*
X159744205Y-56386171D01*
X158887062Y-57457600D02*
X158172777Y-57457600D01*
X159029920Y-57886171D02*
X158529920Y-56386171D01*
X158029920Y-57886171D01*
X156101348Y-56386171D02*
X155815634Y-56386171D01*
X155672777Y-56457600D01*
X155529920Y-56600457D01*
X155458491Y-56886171D01*
X155458491Y-57386171D01*
X155529920Y-57671885D01*
X155672777Y-57814742D01*
X155815634Y-57886171D01*
X156101348Y-57886171D01*
X156244205Y-57814742D01*
X156387062Y-57671885D01*
X156458491Y-57386171D01*
X156458491Y-56886171D01*
X156387062Y-56600457D01*
X156244205Y-56457600D01*
X156101348Y-56386171D01*
X154815634Y-56386171D02*
X154815634Y-57600457D01*
X154744205Y-57743314D01*
X154672777Y-57814742D01*
X154529920Y-57886171D01*
X154244205Y-57886171D01*
X154101348Y-57814742D01*
X154029920Y-57743314D01*
X153958491Y-57600457D01*
X153958491Y-56386171D01*
X153458491Y-56386171D02*
X152601348Y-56386171D01*
X153029920Y-57886171D02*
X153029920Y-56386171D01*
X152244205Y-56386171D02*
X151315634Y-56386171D01*
X151815634Y-56957600D01*
X151601348Y-56957600D01*
X151458491Y-57029028D01*
X151387062Y-57100457D01*
X151315634Y-57243314D01*
X151315634Y-57600457D01*
X151387062Y-57743314D01*
X151458491Y-57814742D01*
X151601348Y-57886171D01*
X152029920Y-57886171D01*
X152172777Y-57814742D01*
X152244205Y-57743314D01*
D10*
X163809880Y-85955320D02*
X163830200Y-83890300D01*
D12*
X156354980Y-96206760D02*
X146662340Y-96206760D01*
X156352440Y-94626880D02*
X146659800Y-94626880D01*
X156321960Y-91225820D02*
X146629320Y-91225820D01*
X146690280Y-96216920D02*
X146642020Y-91246140D01*
X156352440Y-91246140D02*
X156332120Y-96206760D01*
D10*
X158679080Y-93516900D02*
X158699400Y-91451880D01*
X140766876Y-89126517D02*
X140500209Y-89126517D01*
X140385923Y-89545564D02*
X140766876Y-89545564D01*
X140766876Y-88745564D01*
X140385923Y-88745564D01*
X140043066Y-89545564D02*
X140043066Y-88745564D01*
X139585923Y-89545564D01*
X139585923Y-88745564D01*
X138938304Y-89126517D02*
X138824019Y-89164612D01*
X138785923Y-89202707D01*
X138747828Y-89278898D01*
X138747828Y-89393183D01*
X138785923Y-89469374D01*
X138824019Y-89507469D01*
X138900209Y-89545564D01*
X139204971Y-89545564D01*
X139204971Y-88745564D01*
X138938304Y-88745564D01*
X138862114Y-88783660D01*
X138824019Y-88821755D01*
X138785923Y-88897945D01*
X138785923Y-88974136D01*
X138824019Y-89050326D01*
X138862114Y-89088421D01*
X138938304Y-89126517D01*
X139204971Y-89126517D01*
D11*
X167268765Y-54863571D02*
X167268765Y-53363571D01*
X166911622Y-53363571D01*
X166697337Y-53435000D01*
X166554480Y-53577857D01*
X166483051Y-53720714D01*
X166411622Y-54006428D01*
X166411622Y-54220714D01*
X166483051Y-54506428D01*
X166554480Y-54649285D01*
X166697337Y-54792142D01*
X166911622Y-54863571D01*
X167268765Y-54863571D01*
X165768765Y-54863571D02*
X165768765Y-53363571D01*
X164268765Y-53435000D02*
X164411622Y-53363571D01*
X164625908Y-53363571D01*
X164840194Y-53435000D01*
X164983051Y-53577857D01*
X165054480Y-53720714D01*
X165125908Y-54006428D01*
X165125908Y-54220714D01*
X165054480Y-54506428D01*
X164983051Y-54649285D01*
X164840194Y-54792142D01*
X164625908Y-54863571D01*
X164483051Y-54863571D01*
X164268765Y-54792142D01*
X164197337Y-54720714D01*
X164197337Y-54220714D01*
X164483051Y-54220714D01*
X163697337Y-53363571D02*
X162697337Y-53363571D01*
X163340194Y-54863571D01*
X153240345Y-54863571D02*
X153240345Y-53363571D01*
X152883202Y-53363571D01*
X152668917Y-53435000D01*
X152526060Y-53577857D01*
X152454631Y-53720714D01*
X152383202Y-54006428D01*
X152383202Y-54220714D01*
X152454631Y-54506428D01*
X152526060Y-54649285D01*
X152668917Y-54792142D01*
X152883202Y-54863571D01*
X153240345Y-54863571D01*
X151740345Y-54863571D02*
X151740345Y-53363571D01*
X150240345Y-53435000D02*
X150383202Y-53363571D01*
X150597488Y-53363571D01*
X150811774Y-53435000D01*
X150954631Y-53577857D01*
X151026060Y-53720714D01*
X151097488Y-54006428D01*
X151097488Y-54220714D01*
X151026060Y-54506428D01*
X150954631Y-54649285D01*
X150811774Y-54792142D01*
X150597488Y-54863571D01*
X150454631Y-54863571D01*
X150240345Y-54792142D01*
X150168917Y-54720714D01*
X150168917Y-54220714D01*
X150454631Y-54220714D01*
X148883202Y-53363571D02*
X149168917Y-53363571D01*
X149311774Y-53435000D01*
X149383202Y-53506428D01*
X149526060Y-53720714D01*
X149597488Y-54006428D01*
X149597488Y-54577857D01*
X149526060Y-54720714D01*
X149454631Y-54792142D01*
X149311774Y-54863571D01*
X149026060Y-54863571D01*
X148883202Y-54792142D01*
X148811774Y-54720714D01*
X148740345Y-54577857D01*
X148740345Y-54220714D01*
X148811774Y-54077857D01*
X148883202Y-54006428D01*
X149026060Y-53935000D01*
X149311774Y-53935000D01*
X149454631Y-54006428D01*
X149526060Y-54077857D01*
X149597488Y-54220714D01*
D10*
X158207860Y-79882880D02*
X158207860Y-79120880D01*
X158207860Y-79120880D02*
X155667860Y-79120880D01*
X155667860Y-79120880D02*
X155667860Y-79882880D01*
X158215480Y-79905740D02*
X157961480Y-79651740D01*
X158215480Y-79905740D02*
X158469480Y-79651740D01*
D11*
X153716037Y-119574297D02*
X154216037Y-119574297D01*
X154216037Y-120360011D02*
X154216037Y-118860011D01*
X153501751Y-118860011D01*
X152930322Y-120360011D02*
X152930322Y-119360011D01*
X152930322Y-119645725D02*
X152858894Y-119502868D01*
X152787465Y-119431440D01*
X152644608Y-119360011D01*
X152501751Y-119360011D01*
X151430322Y-120288582D02*
X151573180Y-120360011D01*
X151858894Y-120360011D01*
X152001751Y-120288582D01*
X152073180Y-120145725D01*
X152073180Y-119574297D01*
X152001751Y-119431440D01*
X151858894Y-119360011D01*
X151573180Y-119360011D01*
X151430322Y-119431440D01*
X151358894Y-119574297D01*
X151358894Y-119717154D01*
X152073180Y-119860011D01*
X150144608Y-120288582D02*
X150287465Y-120360011D01*
X150573180Y-120360011D01*
X150716037Y-120288582D01*
X150787465Y-120145725D01*
X150787465Y-119574297D01*
X150716037Y-119431440D01*
X150573180Y-119360011D01*
X150287465Y-119360011D01*
X150144608Y-119431440D01*
X150073180Y-119574297D01*
X150073180Y-119717154D01*
X150787465Y-119860011D01*
X149430322Y-118860011D02*
X149430322Y-120074297D01*
X149358894Y-120217154D01*
X149287465Y-120288582D01*
X149144608Y-120360011D01*
X148858894Y-120360011D01*
X148716037Y-120288582D01*
X148644608Y-120217154D01*
X148573180Y-120074297D01*
X148573180Y-118860011D01*
X147930322Y-120288582D02*
X147716037Y-120360011D01*
X147358894Y-120360011D01*
X147216037Y-120288582D01*
X147144608Y-120217154D01*
X147073180Y-120074297D01*
X147073180Y-119931440D01*
X147144608Y-119788582D01*
X147216037Y-119717154D01*
X147358894Y-119645725D01*
X147644608Y-119574297D01*
X147787465Y-119502868D01*
X147858894Y-119431440D01*
X147930322Y-119288582D01*
X147930322Y-119145725D01*
X147858894Y-119002868D01*
X147787465Y-118931440D01*
X147644608Y-118860011D01*
X147287465Y-118860011D01*
X147073180Y-118931440D01*
X145930322Y-119574297D02*
X145716037Y-119645725D01*
X145644608Y-119717154D01*
X145573180Y-119860011D01*
X145573180Y-120074297D01*
X145644608Y-120217154D01*
X145716037Y-120288582D01*
X145858894Y-120360011D01*
X146430322Y-120360011D01*
X146430322Y-118860011D01*
X145930322Y-118860011D01*
X145787465Y-118931440D01*
X145716037Y-119002868D01*
X145644608Y-119145725D01*
X145644608Y-119288582D01*
X145716037Y-119431440D01*
X145787465Y-119502868D01*
X145930322Y-119574297D01*
X146430322Y-119574297D01*
X144930322Y-120360011D02*
X144930322Y-119360011D01*
X144930322Y-118860011D02*
X145001751Y-118931440D01*
X144930322Y-119002868D01*
X144858894Y-118931440D01*
X144930322Y-118860011D01*
X144930322Y-119002868D01*
X128196954Y-147472051D02*
X128196954Y-145972051D01*
X127625525Y-145972051D01*
X127482668Y-146043480D01*
X127411240Y-146114908D01*
X127339811Y-146257765D01*
X127339811Y-146472051D01*
X127411240Y-146614908D01*
X127482668Y-146686337D01*
X127625525Y-146757765D01*
X128196954Y-146757765D01*
X125839811Y-147472051D02*
X126339811Y-146757765D01*
X126696954Y-147472051D02*
X126696954Y-145972051D01*
X126125525Y-145972051D01*
X125982668Y-146043480D01*
X125911240Y-146114908D01*
X125839811Y-146257765D01*
X125839811Y-146472051D01*
X125911240Y-146614908D01*
X125982668Y-146686337D01*
X126125525Y-146757765D01*
X126696954Y-146757765D01*
X124911240Y-145972051D02*
X124625525Y-145972051D01*
X124482668Y-146043480D01*
X124339811Y-146186337D01*
X124268382Y-146472051D01*
X124268382Y-146972051D01*
X124339811Y-147257765D01*
X124482668Y-147400622D01*
X124625525Y-147472051D01*
X124911240Y-147472051D01*
X125054097Y-147400622D01*
X125196954Y-147257765D01*
X125268382Y-146972051D01*
X125268382Y-146472051D01*
X125196954Y-146186337D01*
X125054097Y-146043480D01*
X124911240Y-145972051D01*
X122839811Y-146043480D02*
X122982668Y-145972051D01*
X123196954Y-145972051D01*
X123411240Y-146043480D01*
X123554097Y-146186337D01*
X123625525Y-146329194D01*
X123696954Y-146614908D01*
X123696954Y-146829194D01*
X123625525Y-147114908D01*
X123554097Y-147257765D01*
X123411240Y-147400622D01*
X123196954Y-147472051D01*
X123054097Y-147472051D01*
X122839811Y-147400622D01*
X122768382Y-147329194D01*
X122768382Y-146829194D01*
X123054097Y-146829194D01*
X122125525Y-147329194D02*
X122054097Y-147400622D01*
X122125525Y-147472051D01*
X122196954Y-147400622D01*
X122125525Y-147329194D01*
X122125525Y-147472051D01*
X128875525Y-149950622D02*
X128661240Y-150022051D01*
X128304097Y-150022051D01*
X128161240Y-149950622D01*
X128089811Y-149879194D01*
X128018382Y-149736337D01*
X128018382Y-149593480D01*
X128089811Y-149450622D01*
X128161240Y-149379194D01*
X128304097Y-149307765D01*
X128589811Y-149236337D01*
X128732668Y-149164908D01*
X128804097Y-149093480D01*
X128875525Y-148950622D01*
X128875525Y-148807765D01*
X128804097Y-148664908D01*
X128732668Y-148593480D01*
X128589811Y-148522051D01*
X128232668Y-148522051D01*
X128018382Y-148593480D01*
X127375525Y-149236337D02*
X126875525Y-149236337D01*
X126661240Y-150022051D02*
X127375525Y-150022051D01*
X127375525Y-148522051D01*
X126661240Y-148522051D01*
X125304097Y-150022051D02*
X126018382Y-150022051D01*
X126018382Y-148522051D01*
X124804097Y-149236337D02*
X124304097Y-149236337D01*
X124089811Y-150022051D02*
X124804097Y-150022051D01*
X124804097Y-148522051D01*
X124089811Y-148522051D01*
X122589811Y-149879194D02*
X122661240Y-149950622D01*
X122875525Y-150022051D01*
X123018382Y-150022051D01*
X123232668Y-149950622D01*
X123375525Y-149807765D01*
X123446954Y-149664908D01*
X123518382Y-149379194D01*
X123518382Y-149164908D01*
X123446954Y-148879194D01*
X123375525Y-148736337D01*
X123232668Y-148593480D01*
X123018382Y-148522051D01*
X122875525Y-148522051D01*
X122661240Y-148593480D01*
X122589811Y-148664908D01*
X122161240Y-148522051D02*
X121304097Y-148522051D01*
X121732668Y-150022051D02*
X121732668Y-148522051D01*
D10*
X138775640Y-88360700D02*
X140840660Y-88381020D01*
X138110083Y-70990960D02*
X138186274Y-70952864D01*
X138300560Y-70952864D01*
X138414845Y-70990960D01*
X138491036Y-71067150D01*
X138529131Y-71143340D01*
X138567226Y-71295721D01*
X138567226Y-71410007D01*
X138529131Y-71562388D01*
X138491036Y-71638579D01*
X138414845Y-71714769D01*
X138300560Y-71752864D01*
X138224369Y-71752864D01*
X138110083Y-71714769D01*
X138071988Y-71676674D01*
X138071988Y-71410007D01*
X138224369Y-71410007D01*
X137729131Y-71752864D02*
X137729131Y-70952864D01*
X137271988Y-71752864D01*
X137271988Y-70952864D01*
X136891036Y-71752864D02*
X136891036Y-70952864D01*
X136700560Y-70952864D01*
X136586274Y-70990960D01*
X136510083Y-71067150D01*
X136471988Y-71143340D01*
X136433893Y-71295721D01*
X136433893Y-71410007D01*
X136471988Y-71562388D01*
X136510083Y-71638579D01*
X136586274Y-71714769D01*
X136700560Y-71752864D01*
X136891036Y-71752864D01*
X158372960Y-85579323D02*
X158411055Y-85655514D01*
X158411055Y-85769800D01*
X158372960Y-85884085D01*
X158296769Y-85960276D01*
X158220579Y-85998371D01*
X158068198Y-86036466D01*
X157953912Y-86036466D01*
X157801531Y-85998371D01*
X157725340Y-85960276D01*
X157649150Y-85884085D01*
X157611055Y-85769800D01*
X157611055Y-85693609D01*
X157649150Y-85579323D01*
X157687245Y-85541228D01*
X157953912Y-85541228D01*
X157953912Y-85693609D01*
X157611055Y-85198371D02*
X158411055Y-85198371D01*
X157611055Y-84741228D01*
X158411055Y-84741228D01*
X157611055Y-84360276D02*
X158411055Y-84360276D01*
X158411055Y-84169800D01*
X158372960Y-84055514D01*
X158296769Y-83979323D01*
X158220579Y-83941228D01*
X158068198Y-83903133D01*
X157953912Y-83903133D01*
X157801531Y-83941228D01*
X157725340Y-83979323D01*
X157649150Y-84055514D01*
X157611055Y-84169800D01*
X157611055Y-84360276D01*
X138745160Y-93428000D02*
X136128960Y-93428000D01*
X136125400Y-72110800D02*
X136125400Y-93421400D01*
X136136580Y-72150420D02*
X138854380Y-72150420D01*
X160851995Y-93623456D02*
X160851995Y-93128218D01*
X160547233Y-93394884D01*
X160547233Y-93280599D01*
X160509138Y-93204408D01*
X160471042Y-93166313D01*
X160394852Y-93128218D01*
X160204376Y-93128218D01*
X160128185Y-93166313D01*
X160090090Y-93204408D01*
X160051995Y-93280599D01*
X160051995Y-93509170D01*
X160090090Y-93585360D01*
X160128185Y-93623456D01*
X160851995Y-92899646D02*
X160051995Y-92632980D01*
X160851995Y-92366313D01*
X160851995Y-92175837D02*
X160851995Y-91680599D01*
X160547233Y-91947265D01*
X160547233Y-91832980D01*
X160509138Y-91756789D01*
X160471042Y-91718694D01*
X160394852Y-91680599D01*
X160204376Y-91680599D01*
X160128185Y-91718694D01*
X160090090Y-91756789D01*
X160051995Y-91832980D01*
X160051995Y-92061551D01*
X160090090Y-92137741D01*
X160128185Y-92175837D01*
X152323876Y-95560313D02*
X151942923Y-95560313D01*
X152400066Y-95788884D02*
X152133400Y-94988884D01*
X151866733Y-95788884D01*
X151600066Y-95788884D02*
X151600066Y-94988884D01*
X151409590Y-94988884D01*
X151295304Y-95026980D01*
X151219114Y-95103170D01*
X151181019Y-95179360D01*
X151142923Y-95331741D01*
X151142923Y-95446027D01*
X151181019Y-95598408D01*
X151219114Y-95674599D01*
X151295304Y-95750789D01*
X151409590Y-95788884D01*
X151600066Y-95788884D01*
X150342923Y-95712694D02*
X150381019Y-95750789D01*
X150495304Y-95788884D01*
X150571495Y-95788884D01*
X150685780Y-95750789D01*
X150761971Y-95674599D01*
X150800066Y-95598408D01*
X150838161Y-95446027D01*
X150838161Y-95331741D01*
X150800066Y-95179360D01*
X150761971Y-95103170D01*
X150685780Y-95026980D01*
X150571495Y-94988884D01*
X150495304Y-94988884D01*
X150381019Y-95026980D01*
X150342923Y-95065075D01*
X151032360Y-79720320D02*
X151286360Y-79466320D01*
X151032360Y-79720320D02*
X150778360Y-79466320D01*
X148505060Y-78958320D02*
X148505060Y-79720320D01*
X151045060Y-78958320D02*
X148505060Y-78958320D01*
X151045060Y-79720320D02*
X151045060Y-78958320D01*
X155984415Y-78299640D02*
X156784415Y-78299640D01*
X156784415Y-78109164D01*
X156746320Y-77994879D01*
X156670129Y-77918688D01*
X156593939Y-77880593D01*
X156441558Y-77842498D01*
X156327272Y-77842498D01*
X156174891Y-77880593D01*
X156098700Y-77918688D01*
X156022510Y-77994879D01*
X155984415Y-78109164D01*
X155984415Y-78299640D01*
X156212986Y-77537736D02*
X156212986Y-77156783D01*
X155984415Y-77613926D02*
X156784415Y-77347260D01*
X155984415Y-77080593D01*
X156060605Y-76356783D02*
X156022510Y-76394879D01*
X155984415Y-76509164D01*
X155984415Y-76585355D01*
X156022510Y-76699640D01*
X156098700Y-76775831D01*
X156174891Y-76813926D01*
X156327272Y-76852021D01*
X156441558Y-76852021D01*
X156593939Y-76813926D01*
X156670129Y-76775831D01*
X156746320Y-76699640D01*
X156784415Y-76585355D01*
X156784415Y-76509164D01*
X156746320Y-76394879D01*
X156708224Y-76356783D01*
X155003462Y-78413926D02*
X154965367Y-78299640D01*
X154927272Y-78261545D01*
X154851081Y-78223450D01*
X154736796Y-78223450D01*
X154660605Y-78261545D01*
X154622510Y-78299640D01*
X154584415Y-78375831D01*
X154584415Y-78680593D01*
X155384415Y-78680593D01*
X155384415Y-78413926D01*
X155346320Y-78337736D01*
X155308224Y-78299640D01*
X155232034Y-78261545D01*
X155155843Y-78261545D01*
X155079653Y-78299640D01*
X155041558Y-78337736D01*
X155003462Y-78413926D01*
X155003462Y-78680593D01*
X154660605Y-77423450D02*
X154622510Y-77461545D01*
X154584415Y-77575831D01*
X154584415Y-77652021D01*
X154622510Y-77766307D01*
X154698700Y-77842498D01*
X154774891Y-77880593D01*
X154927272Y-77918688D01*
X155041558Y-77918688D01*
X155193939Y-77880593D01*
X155270129Y-77842498D01*
X155346320Y-77766307D01*
X155384415Y-77652021D01*
X155384415Y-77575831D01*
X155346320Y-77461545D01*
X155308224Y-77423450D01*
X154584415Y-76699640D02*
X154584415Y-77080593D01*
X155384415Y-77080593D01*
X154584415Y-76432974D02*
X155384415Y-76432974D01*
X154584415Y-75975831D02*
X155041558Y-76318688D01*
X155384415Y-75975831D02*
X154927272Y-76432974D01*
X148587935Y-77984680D02*
X149387935Y-77984680D01*
X149387935Y-77794204D01*
X149349840Y-77679919D01*
X149273649Y-77603728D01*
X149197459Y-77565633D01*
X149045078Y-77527538D01*
X148930792Y-77527538D01*
X148778411Y-77565633D01*
X148702220Y-77603728D01*
X148626030Y-77679919D01*
X148587935Y-77794204D01*
X148587935Y-77984680D01*
X148816506Y-77222776D02*
X148816506Y-76841823D01*
X148587935Y-77298966D02*
X149387935Y-77032300D01*
X148587935Y-76765633D01*
X148664125Y-76041823D02*
X148626030Y-76079919D01*
X148587935Y-76194204D01*
X148587935Y-76270395D01*
X148626030Y-76384680D01*
X148702220Y-76460871D01*
X148778411Y-76498966D01*
X148930792Y-76537061D01*
X149045078Y-76537061D01*
X149197459Y-76498966D01*
X149273649Y-76460871D01*
X149349840Y-76384680D01*
X149387935Y-76270395D01*
X149387935Y-76194204D01*
X149349840Y-76079919D01*
X149311744Y-76041823D01*
X147187935Y-78308490D02*
X147187935Y-78689442D01*
X147987935Y-78689442D01*
X147187935Y-77584680D02*
X147568887Y-77851347D01*
X147187935Y-78041823D02*
X147987935Y-78041823D01*
X147987935Y-77737061D01*
X147949840Y-77660871D01*
X147911744Y-77622776D01*
X147835554Y-77584680D01*
X147721268Y-77584680D01*
X147645078Y-77622776D01*
X147606982Y-77660871D01*
X147568887Y-77737061D01*
X147568887Y-78041823D01*
X147264125Y-76784680D02*
X147226030Y-76822776D01*
X147187935Y-76937061D01*
X147187935Y-77013252D01*
X147226030Y-77127538D01*
X147302220Y-77203728D01*
X147378411Y-77241823D01*
X147530792Y-77279919D01*
X147645078Y-77279919D01*
X147797459Y-77241823D01*
X147873649Y-77203728D01*
X147949840Y-77127538D01*
X147987935Y-77013252D01*
X147987935Y-76937061D01*
X147949840Y-76822776D01*
X147911744Y-76784680D01*
X147187935Y-76060871D02*
X147187935Y-76441823D01*
X147987935Y-76441823D01*
X147187935Y-75794204D02*
X147987935Y-75794204D01*
X147187935Y-75337061D02*
X147645078Y-75679919D01*
X147987935Y-75337061D02*
X147530792Y-75794204D01*
X147364695Y-94182222D02*
X148164695Y-94182222D01*
X147593266Y-93915556D01*
X148164695Y-93648889D01*
X147364695Y-93648889D01*
X147440885Y-92810794D02*
X147402790Y-92848889D01*
X147364695Y-92963175D01*
X147364695Y-93039365D01*
X147402790Y-93153651D01*
X147478980Y-93229841D01*
X147555171Y-93267937D01*
X147707552Y-93306032D01*
X147821838Y-93306032D01*
X147974219Y-93267937D01*
X148050409Y-93229841D01*
X148126600Y-93153651D01*
X148164695Y-93039365D01*
X148164695Y-92963175D01*
X148126600Y-92848889D01*
X148088504Y-92810794D01*
X147364695Y-92467937D02*
X148164695Y-92467937D01*
X147364695Y-92010794D02*
X147821838Y-92353651D01*
X148164695Y-92010794D02*
X147707552Y-92467937D01*
X147364695Y-91667937D02*
X148164695Y-91667937D01*
X150062175Y-85711360D02*
X150062175Y-86092313D01*
X150862175Y-86092313D01*
X150062175Y-84987551D02*
X150443127Y-85254218D01*
X150062175Y-85444694D02*
X150862175Y-85444694D01*
X150862175Y-85139932D01*
X150824080Y-85063741D01*
X150785984Y-85025646D01*
X150709794Y-84987551D01*
X150595508Y-84987551D01*
X150519318Y-85025646D01*
X150481222Y-85063741D01*
X150443127Y-85139932D01*
X150443127Y-85444694D01*
X150138365Y-84187551D02*
X150100270Y-84225646D01*
X150062175Y-84339932D01*
X150062175Y-84416122D01*
X150100270Y-84530408D01*
X150176460Y-84606599D01*
X150252651Y-84644694D01*
X150405032Y-84682789D01*
X150519318Y-84682789D01*
X150671699Y-84644694D01*
X150747889Y-84606599D01*
X150824080Y-84530408D01*
X150862175Y-84416122D01*
X150862175Y-84339932D01*
X150824080Y-84225646D01*
X150785984Y-84187551D01*
X150062175Y-83844694D02*
X150862175Y-83844694D01*
X150062175Y-83387551D02*
X150519318Y-83730408D01*
X150862175Y-83387551D02*
X150405032Y-83844694D01*
X152868822Y-93956186D02*
X152830727Y-93841900D01*
X152792632Y-93803805D01*
X152716441Y-93765710D01*
X152602156Y-93765710D01*
X152525965Y-93803805D01*
X152487870Y-93841900D01*
X152449775Y-93918091D01*
X152449775Y-94222853D01*
X153249775Y-94222853D01*
X153249775Y-93956186D01*
X153211680Y-93879996D01*
X153173584Y-93841900D01*
X153097394Y-93803805D01*
X153021203Y-93803805D01*
X152945013Y-93841900D01*
X152906918Y-93879996D01*
X152868822Y-93956186D01*
X152868822Y-94222853D01*
X152525965Y-92965710D02*
X152487870Y-93003805D01*
X152449775Y-93118091D01*
X152449775Y-93194281D01*
X152487870Y-93308567D01*
X152564060Y-93384758D01*
X152640251Y-93422853D01*
X152792632Y-93460948D01*
X152906918Y-93460948D01*
X153059299Y-93422853D01*
X153135489Y-93384758D01*
X153211680Y-93308567D01*
X153249775Y-93194281D01*
X153249775Y-93118091D01*
X153211680Y-93003805D01*
X153173584Y-92965710D01*
X152449775Y-92241900D02*
X152449775Y-92622853D01*
X153249775Y-92622853D01*
X152449775Y-91975234D02*
X153249775Y-91975234D01*
X152449775Y-91518091D02*
X152906918Y-91860948D01*
X153249775Y-91518091D02*
X152792632Y-91975234D01*
X158009782Y-93425336D02*
X158009782Y-93158669D01*
X157590735Y-93044383D02*
X157590735Y-93425336D01*
X158390735Y-93425336D01*
X158390735Y-93044383D01*
X157590735Y-92701526D02*
X158390735Y-92701526D01*
X157590735Y-92244383D01*
X158390735Y-92244383D01*
X158009782Y-91596764D02*
X157971687Y-91482479D01*
X157933592Y-91444383D01*
X157857401Y-91406288D01*
X157743116Y-91406288D01*
X157666925Y-91444383D01*
X157628830Y-91482479D01*
X157590735Y-91558669D01*
X157590735Y-91863431D01*
X158390735Y-91863431D01*
X158390735Y-91596764D01*
X158352640Y-91520574D01*
X158314544Y-91482479D01*
X158238354Y-91444383D01*
X158162163Y-91444383D01*
X158085973Y-91482479D01*
X158047878Y-91520574D01*
X158009782Y-91596764D01*
X158009782Y-91863431D01*
X162693595Y-94103473D02*
X163493595Y-94103473D01*
X163493595Y-93912997D01*
X163455500Y-93798711D01*
X163379309Y-93722520D01*
X163303119Y-93684425D01*
X163150738Y-93646330D01*
X163036452Y-93646330D01*
X162884071Y-93684425D01*
X162807880Y-93722520D01*
X162731690Y-93798711D01*
X162693595Y-93912997D01*
X162693595Y-94103473D01*
X162922166Y-93341568D02*
X162922166Y-92960616D01*
X162693595Y-93417759D02*
X163493595Y-93151092D01*
X162693595Y-92884425D01*
X162769785Y-92160616D02*
X162731690Y-92198711D01*
X162693595Y-92312997D01*
X162693595Y-92389187D01*
X162731690Y-92503473D01*
X162807880Y-92579663D01*
X162884071Y-92617759D01*
X163036452Y-92655854D01*
X163150738Y-92655854D01*
X163303119Y-92617759D01*
X163379309Y-92579663D01*
X163455500Y-92503473D01*
X163493595Y-92389187D01*
X163493595Y-92312997D01*
X163455500Y-92198711D01*
X163417404Y-92160616D01*
X162693595Y-91398711D02*
X162693595Y-91855854D01*
X162693595Y-91627282D02*
X163493595Y-91627282D01*
X163379309Y-91703473D01*
X163303119Y-91779663D01*
X163265023Y-91855854D01*
X165218355Y-85972933D02*
X166018355Y-85972933D01*
X166018355Y-85782457D01*
X165980260Y-85668171D01*
X165904069Y-85591980D01*
X165827879Y-85553885D01*
X165675498Y-85515790D01*
X165561212Y-85515790D01*
X165408831Y-85553885D01*
X165332640Y-85591980D01*
X165256450Y-85668171D01*
X165218355Y-85782457D01*
X165218355Y-85972933D01*
X165446926Y-85211028D02*
X165446926Y-84830076D01*
X165218355Y-85287219D02*
X166018355Y-85020552D01*
X165218355Y-84753885D01*
X165294545Y-84030076D02*
X165256450Y-84068171D01*
X165218355Y-84182457D01*
X165218355Y-84258647D01*
X165256450Y-84372933D01*
X165332640Y-84449123D01*
X165408831Y-84487219D01*
X165561212Y-84525314D01*
X165675498Y-84525314D01*
X165827879Y-84487219D01*
X165904069Y-84449123D01*
X165980260Y-84372933D01*
X166018355Y-84258647D01*
X166018355Y-84182457D01*
X165980260Y-84068171D01*
X165942164Y-84030076D01*
X166018355Y-83534838D02*
X166018355Y-83458647D01*
X165980260Y-83382457D01*
X165942164Y-83344361D01*
X165865974Y-83306266D01*
X165713593Y-83268171D01*
X165523117Y-83268171D01*
X165370736Y-83306266D01*
X165294545Y-83344361D01*
X165256450Y-83382457D01*
X165218355Y-83458647D01*
X165218355Y-83534838D01*
X165256450Y-83611028D01*
X165294545Y-83649123D01*
X165370736Y-83687219D01*
X165523117Y-83725314D01*
X165713593Y-83725314D01*
X165865974Y-83687219D01*
X165942164Y-83649123D01*
X165980260Y-83611028D01*
X166018355Y-83534838D01*
X154987235Y-94041260D02*
X155787235Y-94041260D01*
X155787235Y-93850783D01*
X155749140Y-93736498D01*
X155672949Y-93660307D01*
X155596759Y-93622212D01*
X155444378Y-93584117D01*
X155330092Y-93584117D01*
X155177711Y-93622212D01*
X155101520Y-93660307D01*
X155025330Y-93736498D01*
X154987235Y-93850783D01*
X154987235Y-94041260D01*
X155215806Y-93279355D02*
X155215806Y-92898402D01*
X154987235Y-93355545D02*
X155787235Y-93088879D01*
X154987235Y-92822212D01*
X155787235Y-92669831D02*
X155787235Y-92212688D01*
X154987235Y-92441260D02*
X155787235Y-92441260D01*
X155215806Y-91984117D02*
X155215806Y-91603164D01*
X154987235Y-92060307D02*
X155787235Y-91793640D01*
X154987235Y-91526974D01*
X171062800Y-93100263D02*
X171100895Y-93176454D01*
X171100895Y-93290740D01*
X171062800Y-93405025D01*
X170986609Y-93481216D01*
X170910419Y-93519311D01*
X170758038Y-93557406D01*
X170643752Y-93557406D01*
X170491371Y-93519311D01*
X170415180Y-93481216D01*
X170338990Y-93405025D01*
X170300895Y-93290740D01*
X170300895Y-93214549D01*
X170338990Y-93100263D01*
X170377085Y-93062168D01*
X170643752Y-93062168D01*
X170643752Y-93214549D01*
X170300895Y-92719311D02*
X171100895Y-92719311D01*
X170300895Y-92262168D01*
X171100895Y-92262168D01*
X170300895Y-91881216D02*
X171100895Y-91881216D01*
X171100895Y-91690740D01*
X171062800Y-91576454D01*
X170986609Y-91500263D01*
X170910419Y-91462168D01*
X170758038Y-91424073D01*
X170643752Y-91424073D01*
X170491371Y-91462168D01*
X170415180Y-91500263D01*
X170338990Y-91576454D01*
X170300895Y-91690740D01*
X170300895Y-91881216D01*
X162650415Y-85843436D02*
X163450415Y-85843436D01*
X162878986Y-85576769D01*
X163450415Y-85310102D01*
X162650415Y-85310102D01*
X163450415Y-84929150D02*
X162802796Y-84929150D01*
X162726605Y-84891055D01*
X162688510Y-84852960D01*
X162650415Y-84776769D01*
X162650415Y-84624388D01*
X162688510Y-84548198D01*
X162726605Y-84510102D01*
X162802796Y-84472007D01*
X163450415Y-84472007D01*
X163450415Y-84205340D02*
X163450415Y-83748198D01*
X162650415Y-83976769D02*
X163450415Y-83976769D01*
X147478995Y-86013554D02*
X148278995Y-86013554D01*
X147707566Y-85746887D01*
X148278995Y-85480220D01*
X147478995Y-85480220D01*
X147555185Y-84642125D02*
X147517090Y-84680220D01*
X147478995Y-84794506D01*
X147478995Y-84870697D01*
X147517090Y-84984982D01*
X147593280Y-85061173D01*
X147669471Y-85099268D01*
X147821852Y-85137363D01*
X147936138Y-85137363D01*
X148088519Y-85099268D01*
X148164709Y-85061173D01*
X148240900Y-84984982D01*
X148278995Y-84870697D01*
X148278995Y-84794506D01*
X148240900Y-84680220D01*
X148202804Y-84642125D01*
X147478995Y-84299268D02*
X148278995Y-84299268D01*
X147478995Y-83842125D02*
X147936138Y-84184982D01*
X148278995Y-83842125D02*
X147821852Y-84299268D01*
X148278995Y-83346887D02*
X148278995Y-83194506D01*
X148240900Y-83118316D01*
X148164709Y-83042125D01*
X148012328Y-83004030D01*
X147745661Y-83004030D01*
X147593280Y-83042125D01*
X147517090Y-83118316D01*
X147478995Y-83194506D01*
X147478995Y-83346887D01*
X147517090Y-83423078D01*
X147593280Y-83499268D01*
X147745661Y-83537363D01*
X148012328Y-83537363D01*
X148164709Y-83499268D01*
X148240900Y-83423078D01*
X148278995Y-83346887D01*
X149960575Y-93877460D02*
X149960575Y-94258413D01*
X150760575Y-94258413D01*
X149960575Y-93153651D02*
X150341527Y-93420318D01*
X149960575Y-93610794D02*
X150760575Y-93610794D01*
X150760575Y-93306032D01*
X150722480Y-93229841D01*
X150684384Y-93191746D01*
X150608194Y-93153651D01*
X150493908Y-93153651D01*
X150417718Y-93191746D01*
X150379622Y-93229841D01*
X150341527Y-93306032D01*
X150341527Y-93610794D01*
X150036765Y-92353651D02*
X149998670Y-92391746D01*
X149960575Y-92506032D01*
X149960575Y-92582222D01*
X149998670Y-92696508D01*
X150074860Y-92772699D01*
X150151051Y-92810794D01*
X150303432Y-92848889D01*
X150417718Y-92848889D01*
X150570099Y-92810794D01*
X150646289Y-92772699D01*
X150722480Y-92696508D01*
X150760575Y-92582222D01*
X150760575Y-92506032D01*
X150722480Y-92391746D01*
X150684384Y-92353651D01*
X149960575Y-92010794D02*
X150760575Y-92010794D01*
X149960575Y-91553651D02*
X150417718Y-91896508D01*
X150760575Y-91553651D02*
X150303432Y-92010794D01*
X152960262Y-85744366D02*
X152922167Y-85630080D01*
X152884072Y-85591985D01*
X152807881Y-85553890D01*
X152693596Y-85553890D01*
X152617405Y-85591985D01*
X152579310Y-85630080D01*
X152541215Y-85706271D01*
X152541215Y-86011033D01*
X153341215Y-86011033D01*
X153341215Y-85744366D01*
X153303120Y-85668176D01*
X153265024Y-85630080D01*
X153188834Y-85591985D01*
X153112643Y-85591985D01*
X153036453Y-85630080D01*
X152998358Y-85668176D01*
X152960262Y-85744366D01*
X152960262Y-86011033D01*
X152617405Y-84753890D02*
X152579310Y-84791985D01*
X152541215Y-84906271D01*
X152541215Y-84982461D01*
X152579310Y-85096747D01*
X152655500Y-85172938D01*
X152731691Y-85211033D01*
X152884072Y-85249128D01*
X152998358Y-85249128D01*
X153150739Y-85211033D01*
X153226929Y-85172938D01*
X153303120Y-85096747D01*
X153341215Y-84982461D01*
X153341215Y-84906271D01*
X153303120Y-84791985D01*
X153265024Y-84753890D01*
X152541215Y-84030080D02*
X152541215Y-84411033D01*
X153341215Y-84411033D01*
X152541215Y-83763414D02*
X153341215Y-83763414D01*
X152541215Y-83306271D02*
X152998358Y-83649128D01*
X153341215Y-83306271D02*
X152884072Y-83763414D01*
X155165035Y-85950073D02*
X155965035Y-85950073D01*
X155965035Y-85759597D01*
X155926940Y-85645311D01*
X155850749Y-85569120D01*
X155774559Y-85531025D01*
X155622178Y-85492930D01*
X155507892Y-85492930D01*
X155355511Y-85531025D01*
X155279320Y-85569120D01*
X155203130Y-85645311D01*
X155165035Y-85759597D01*
X155165035Y-85950073D01*
X155393606Y-85188168D02*
X155393606Y-84807216D01*
X155165035Y-85264359D02*
X155965035Y-84997692D01*
X155165035Y-84731025D01*
X155241225Y-84007216D02*
X155203130Y-84045311D01*
X155165035Y-84159597D01*
X155165035Y-84235787D01*
X155203130Y-84350073D01*
X155279320Y-84426263D01*
X155355511Y-84464359D01*
X155507892Y-84502454D01*
X155622178Y-84502454D01*
X155774559Y-84464359D01*
X155850749Y-84426263D01*
X155926940Y-84350073D01*
X155965035Y-84235787D01*
X155965035Y-84159597D01*
X155926940Y-84045311D01*
X155888844Y-84007216D01*
X155888844Y-83702454D02*
X155926940Y-83664359D01*
X155965035Y-83588168D01*
X155965035Y-83397692D01*
X155926940Y-83321501D01*
X155888844Y-83283406D01*
X155812654Y-83245311D01*
X155736463Y-83245311D01*
X155622178Y-83283406D01*
X155165035Y-83740549D01*
X155165035Y-83245311D01*
X160897715Y-85901856D02*
X160897715Y-85406618D01*
X160592953Y-85673284D01*
X160592953Y-85558999D01*
X160554858Y-85482808D01*
X160516762Y-85444713D01*
X160440572Y-85406618D01*
X160250096Y-85406618D01*
X160173905Y-85444713D01*
X160135810Y-85482808D01*
X160097715Y-85558999D01*
X160097715Y-85787570D01*
X160135810Y-85863760D01*
X160173905Y-85901856D01*
X160897715Y-85178046D02*
X160097715Y-84911380D01*
X160897715Y-84644713D01*
X160897715Y-84454237D02*
X160897715Y-83958999D01*
X160592953Y-84225665D01*
X160592953Y-84111380D01*
X160554858Y-84035189D01*
X160516762Y-83997094D01*
X160440572Y-83958999D01*
X160250096Y-83958999D01*
X160173905Y-83997094D01*
X160135810Y-84035189D01*
X160097715Y-84111380D01*
X160097715Y-84339951D01*
X160135810Y-84416141D01*
X160173905Y-84454237D01*
X167875190Y-85861220D02*
X167837095Y-85746935D01*
X167837095Y-85556459D01*
X167875190Y-85480268D01*
X167913285Y-85442173D01*
X167989476Y-85404078D01*
X168065666Y-85404078D01*
X168141857Y-85442173D01*
X168179952Y-85480268D01*
X168218047Y-85556459D01*
X168256142Y-85708840D01*
X168294238Y-85785030D01*
X168332333Y-85823125D01*
X168408523Y-85861220D01*
X168484714Y-85861220D01*
X168560904Y-85823125D01*
X168599000Y-85785030D01*
X168637095Y-85708840D01*
X168637095Y-85518363D01*
X168599000Y-85404078D01*
X167913285Y-84604078D02*
X167875190Y-84642173D01*
X167837095Y-84756459D01*
X167837095Y-84832649D01*
X167875190Y-84946935D01*
X167951380Y-85023125D01*
X168027571Y-85061220D01*
X168179952Y-85099316D01*
X168294238Y-85099316D01*
X168446619Y-85061220D01*
X168522809Y-85023125D01*
X168599000Y-84946935D01*
X168637095Y-84832649D01*
X168637095Y-84756459D01*
X168599000Y-84642173D01*
X168560904Y-84604078D01*
X167837095Y-83880268D02*
X167837095Y-84261220D01*
X168637095Y-84261220D01*
X170506630Y-85829468D02*
X170468535Y-85715182D01*
X170468535Y-85524706D01*
X170506630Y-85448516D01*
X170544725Y-85410420D01*
X170620916Y-85372325D01*
X170697106Y-85372325D01*
X170773297Y-85410420D01*
X170811392Y-85448516D01*
X170849487Y-85524706D01*
X170887582Y-85677087D01*
X170925678Y-85753278D01*
X170963773Y-85791373D01*
X171039963Y-85829468D01*
X171116154Y-85829468D01*
X171192344Y-85791373D01*
X171230440Y-85753278D01*
X171268535Y-85677087D01*
X171268535Y-85486611D01*
X171230440Y-85372325D01*
X170468535Y-85029468D02*
X171268535Y-85029468D01*
X171268535Y-84838992D01*
X171230440Y-84724706D01*
X171154249Y-84648516D01*
X171078059Y-84610420D01*
X170925678Y-84572325D01*
X170811392Y-84572325D01*
X170659011Y-84610420D01*
X170582820Y-84648516D01*
X170506630Y-84724706D01*
X170468535Y-84838992D01*
X170468535Y-85029468D01*
X170697106Y-84267563D02*
X170697106Y-83886611D01*
X170468535Y-84343754D02*
X171268535Y-84077087D01*
X170468535Y-83810420D01*
X132976696Y-92023904D02*
X132976696Y-91223904D01*
X132710029Y-91795333D01*
X132443362Y-91223904D01*
X132443362Y-92023904D01*
X131605267Y-91947714D02*
X131643362Y-91985809D01*
X131757648Y-92023904D01*
X131833839Y-92023904D01*
X131948124Y-91985809D01*
X132024315Y-91909619D01*
X132062410Y-91833428D01*
X132100505Y-91681047D01*
X132100505Y-91566761D01*
X132062410Y-91414380D01*
X132024315Y-91338190D01*
X131948124Y-91262000D01*
X131833839Y-91223904D01*
X131757648Y-91223904D01*
X131643362Y-91262000D01*
X131605267Y-91300095D01*
X130881458Y-92023904D02*
X131262410Y-92023904D01*
X131262410Y-91223904D01*
X130614791Y-92023904D02*
X130614791Y-91223904D01*
X130157648Y-92023904D02*
X130500505Y-91566761D01*
X130157648Y-91223904D02*
X130614791Y-91681047D01*
X133268696Y-76809333D02*
X132887743Y-76809333D01*
X133344886Y-77037904D02*
X133078220Y-76237904D01*
X132811553Y-77037904D01*
X132544886Y-77037904D02*
X132544886Y-76237904D01*
X132354410Y-76237904D01*
X132240124Y-76276000D01*
X132163934Y-76352190D01*
X132125839Y-76428380D01*
X132087743Y-76580761D01*
X132087743Y-76695047D01*
X132125839Y-76847428D01*
X132163934Y-76923619D01*
X132240124Y-76999809D01*
X132354410Y-77037904D01*
X132544886Y-77037904D01*
X131287743Y-76961714D02*
X131325839Y-76999809D01*
X131440124Y-77037904D01*
X131516315Y-77037904D01*
X131630600Y-76999809D01*
X131706791Y-76923619D01*
X131744886Y-76847428D01*
X131782981Y-76695047D01*
X131782981Y-76580761D01*
X131744886Y-76428380D01*
X131706791Y-76352190D01*
X131630600Y-76276000D01*
X131516315Y-76237904D01*
X131440124Y-76237904D01*
X131325839Y-76276000D01*
X131287743Y-76314095D01*
X130944886Y-76733142D02*
X130335362Y-76733142D01*
X129954410Y-77037904D02*
X129954410Y-76237904D01*
X129763934Y-76237904D01*
X129649648Y-76276000D01*
X129573458Y-76352190D01*
X129535362Y-76428380D01*
X129497267Y-76580761D01*
X129497267Y-76695047D01*
X129535362Y-76847428D01*
X129573458Y-76923619D01*
X129649648Y-76999809D01*
X129763934Y-77037904D01*
X129954410Y-77037904D01*
X129268696Y-76237904D02*
X128811553Y-76237904D01*
X129040124Y-77037904D02*
X129040124Y-76237904D01*
X133207783Y-73983022D02*
X132598260Y-73983022D01*
X132903021Y-74287784D02*
X132903021Y-73678260D01*
X131798260Y-74287784D02*
X132255402Y-74287784D01*
X132026831Y-74287784D02*
X132026831Y-73487784D01*
X132103021Y-73602070D01*
X132179212Y-73678260D01*
X132255402Y-73716356D01*
X131493498Y-73563975D02*
X131455402Y-73525880D01*
X131379212Y-73487784D01*
X131188736Y-73487784D01*
X131112545Y-73525880D01*
X131074450Y-73563975D01*
X131036355Y-73640165D01*
X131036355Y-73716356D01*
X131074450Y-73830641D01*
X131531593Y-74287784D01*
X131036355Y-74287784D01*
X130807783Y-73487784D02*
X130541117Y-74287784D01*
X130274450Y-73487784D01*
X133230600Y-79323904D02*
X133230600Y-78523904D01*
X133040124Y-78523904D01*
X132925839Y-78562000D01*
X132849648Y-78638190D01*
X132811553Y-78714380D01*
X132773458Y-78866761D01*
X132773458Y-78981047D01*
X132811553Y-79133428D01*
X132849648Y-79209619D01*
X132925839Y-79285809D01*
X133040124Y-79323904D01*
X133230600Y-79323904D01*
X132468696Y-79095333D02*
X132087743Y-79095333D01*
X132544886Y-79323904D02*
X132278220Y-78523904D01*
X132011553Y-79323904D01*
X131287743Y-79247714D02*
X131325839Y-79285809D01*
X131440124Y-79323904D01*
X131516315Y-79323904D01*
X131630600Y-79285809D01*
X131706791Y-79209619D01*
X131744886Y-79133428D01*
X131782981Y-78981047D01*
X131782981Y-78866761D01*
X131744886Y-78714380D01*
X131706791Y-78638190D01*
X131630600Y-78562000D01*
X131516315Y-78523904D01*
X131440124Y-78523904D01*
X131325839Y-78562000D01*
X131287743Y-78600095D01*
X130944886Y-79019142D02*
X130335362Y-79019142D01*
X129954410Y-79323904D02*
X129954410Y-78523904D01*
X129763934Y-78523904D01*
X129649648Y-78562000D01*
X129573458Y-78638190D01*
X129535362Y-78714380D01*
X129497267Y-78866761D01*
X129497267Y-78981047D01*
X129535362Y-79133428D01*
X129573458Y-79209619D01*
X129649648Y-79285809D01*
X129763934Y-79323904D01*
X129954410Y-79323904D01*
X129268696Y-78523904D02*
X128811553Y-78523904D01*
X129040124Y-79323904D02*
X129040124Y-78523904D01*
X132906886Y-81444857D02*
X132792600Y-81482952D01*
X132754505Y-81521047D01*
X132716410Y-81597238D01*
X132716410Y-81711523D01*
X132754505Y-81787714D01*
X132792600Y-81825809D01*
X132868791Y-81863904D01*
X133173553Y-81863904D01*
X133173553Y-81063904D01*
X132906886Y-81063904D01*
X132830696Y-81102000D01*
X132792600Y-81140095D01*
X132754505Y-81216285D01*
X132754505Y-81292476D01*
X132792600Y-81368666D01*
X132830696Y-81406761D01*
X132906886Y-81444857D01*
X133173553Y-81444857D01*
X131916410Y-81787714D02*
X131954505Y-81825809D01*
X132068791Y-81863904D01*
X132144981Y-81863904D01*
X132259267Y-81825809D01*
X132335458Y-81749619D01*
X132373553Y-81673428D01*
X132411648Y-81521047D01*
X132411648Y-81406761D01*
X132373553Y-81254380D01*
X132335458Y-81178190D01*
X132259267Y-81102000D01*
X132144981Y-81063904D01*
X132068791Y-81063904D01*
X131954505Y-81102000D01*
X131916410Y-81140095D01*
X131192600Y-81863904D02*
X131573553Y-81863904D01*
X131573553Y-81063904D01*
X130925934Y-81863904D02*
X130925934Y-81063904D01*
X130468791Y-81863904D02*
X130811648Y-81406761D01*
X130468791Y-81063904D02*
X130925934Y-81521047D01*
X132792600Y-84657904D02*
X133173553Y-84657904D01*
X133173553Y-83857904D01*
X132068791Y-84657904D02*
X132335458Y-84276952D01*
X132525934Y-84657904D02*
X132525934Y-83857904D01*
X132221172Y-83857904D01*
X132144981Y-83896000D01*
X132106886Y-83934095D01*
X132068791Y-84010285D01*
X132068791Y-84124571D01*
X132106886Y-84200761D01*
X132144981Y-84238857D01*
X132221172Y-84276952D01*
X132525934Y-84276952D01*
X131268791Y-84581714D02*
X131306886Y-84619809D01*
X131421172Y-84657904D01*
X131497362Y-84657904D01*
X131611648Y-84619809D01*
X131687839Y-84543619D01*
X131725934Y-84467428D01*
X131764029Y-84315047D01*
X131764029Y-84200761D01*
X131725934Y-84048380D01*
X131687839Y-83972190D01*
X131611648Y-83896000D01*
X131497362Y-83857904D01*
X131421172Y-83857904D01*
X131306886Y-83896000D01*
X131268791Y-83934095D01*
X130925934Y-84657904D02*
X130925934Y-83857904D01*
X130468791Y-84657904D02*
X130811648Y-84200761D01*
X130468791Y-83857904D02*
X130925934Y-84315047D01*
X132557648Y-86905809D02*
X132443362Y-86943904D01*
X132252886Y-86943904D01*
X132176696Y-86905809D01*
X132138600Y-86867714D01*
X132100505Y-86791523D01*
X132100505Y-86715333D01*
X132138600Y-86639142D01*
X132176696Y-86601047D01*
X132252886Y-86562952D01*
X132405267Y-86524857D01*
X132481458Y-86486761D01*
X132519553Y-86448666D01*
X132557648Y-86372476D01*
X132557648Y-86296285D01*
X132519553Y-86220095D01*
X132481458Y-86182000D01*
X132405267Y-86143904D01*
X132214791Y-86143904D01*
X132100505Y-86182000D01*
X131757648Y-86943904D02*
X131757648Y-86143904D01*
X131567172Y-86143904D01*
X131452886Y-86182000D01*
X131376696Y-86258190D01*
X131338600Y-86334380D01*
X131300505Y-86486761D01*
X131300505Y-86601047D01*
X131338600Y-86753428D01*
X131376696Y-86829619D01*
X131452886Y-86905809D01*
X131567172Y-86943904D01*
X131757648Y-86943904D01*
X130995743Y-86715333D02*
X130614791Y-86715333D01*
X131071934Y-86943904D02*
X130805267Y-86143904D01*
X130538600Y-86943904D01*
X132538600Y-89445809D02*
X132424315Y-89483904D01*
X132233839Y-89483904D01*
X132157648Y-89445809D01*
X132119553Y-89407714D01*
X132081458Y-89331523D01*
X132081458Y-89255333D01*
X132119553Y-89179142D01*
X132157648Y-89141047D01*
X132233839Y-89102952D01*
X132386220Y-89064857D01*
X132462410Y-89026761D01*
X132500505Y-88988666D01*
X132538600Y-88912476D01*
X132538600Y-88836285D01*
X132500505Y-88760095D01*
X132462410Y-88722000D01*
X132386220Y-88683904D01*
X132195743Y-88683904D01*
X132081458Y-88722000D01*
X131281458Y-89407714D02*
X131319553Y-89445809D01*
X131433839Y-89483904D01*
X131510029Y-89483904D01*
X131624315Y-89445809D01*
X131700505Y-89369619D01*
X131738600Y-89293428D01*
X131776696Y-89141047D01*
X131776696Y-89026761D01*
X131738600Y-88874380D01*
X131700505Y-88798190D01*
X131624315Y-88722000D01*
X131510029Y-88683904D01*
X131433839Y-88683904D01*
X131319553Y-88722000D01*
X131281458Y-88760095D01*
X130557648Y-89483904D02*
X130938600Y-89483904D01*
X130938600Y-88683904D01*
X100012704Y-102692285D02*
X100012704Y-102235142D01*
X100012704Y-102463714D02*
X99212704Y-102463714D01*
X99326990Y-102387523D01*
X99403180Y-102311333D01*
X99441276Y-102235142D01*
X99288895Y-102997047D02*
X99250800Y-103035142D01*
X99212704Y-103111333D01*
X99212704Y-103301809D01*
X99250800Y-103378000D01*
X99288895Y-103416095D01*
X99365085Y-103454190D01*
X99441276Y-103454190D01*
X99555561Y-103416095D01*
X100012704Y-102958952D01*
X100012704Y-103454190D01*
X99936514Y-103797047D02*
X99974609Y-103835142D01*
X100012704Y-103797047D01*
X99974609Y-103758952D01*
X99936514Y-103797047D01*
X100012704Y-103797047D01*
X99288895Y-104139904D02*
X99250800Y-104178000D01*
X99212704Y-104254190D01*
X99212704Y-104444666D01*
X99250800Y-104520857D01*
X99288895Y-104558952D01*
X99365085Y-104597047D01*
X99441276Y-104597047D01*
X99555561Y-104558952D01*
X100012704Y-104101809D01*
X100012704Y-104597047D01*
X99555561Y-105054190D02*
X99517466Y-104978000D01*
X99479371Y-104939904D01*
X99403180Y-104901809D01*
X99365085Y-104901809D01*
X99288895Y-104939904D01*
X99250800Y-104978000D01*
X99212704Y-105054190D01*
X99212704Y-105206571D01*
X99250800Y-105282761D01*
X99288895Y-105320857D01*
X99365085Y-105358952D01*
X99403180Y-105358952D01*
X99479371Y-105320857D01*
X99517466Y-105282761D01*
X99555561Y-105206571D01*
X99555561Y-105054190D01*
X99593657Y-104978000D01*
X99631752Y-104939904D01*
X99707942Y-104901809D01*
X99860323Y-104901809D01*
X99936514Y-104939904D01*
X99974609Y-104978000D01*
X100012704Y-105054190D01*
X100012704Y-105206571D01*
X99974609Y-105282761D01*
X99936514Y-105320857D01*
X99860323Y-105358952D01*
X99707942Y-105358952D01*
X99631752Y-105320857D01*
X99593657Y-105282761D01*
X99555561Y-105206571D01*
X99555561Y-105816095D02*
X99517466Y-105739904D01*
X99479371Y-105701809D01*
X99403180Y-105663714D01*
X99365085Y-105663714D01*
X99288895Y-105701809D01*
X99250800Y-105739904D01*
X99212704Y-105816095D01*
X99212704Y-105968476D01*
X99250800Y-106044666D01*
X99288895Y-106082761D01*
X99365085Y-106120857D01*
X99403180Y-106120857D01*
X99479371Y-106082761D01*
X99517466Y-106044666D01*
X99555561Y-105968476D01*
X99555561Y-105816095D01*
X99593657Y-105739904D01*
X99631752Y-105701809D01*
X99707942Y-105663714D01*
X99860323Y-105663714D01*
X99936514Y-105701809D01*
X99974609Y-105739904D01*
X100012704Y-105816095D01*
X100012704Y-105968476D01*
X99974609Y-106044666D01*
X99936514Y-106082761D01*
X99860323Y-106120857D01*
X99707942Y-106120857D01*
X99631752Y-106082761D01*
X99593657Y-106044666D01*
X99555561Y-105968476D01*
X100012704Y-106463714D02*
X99212704Y-106463714D01*
X99784133Y-106730380D01*
X99212704Y-106997047D01*
X100012704Y-106997047D01*
X100012704Y-107378000D02*
X99212704Y-107378000D01*
X99593657Y-107378000D02*
X99593657Y-107835142D01*
X100012704Y-107835142D02*
X99212704Y-107835142D01*
X99479371Y-108139904D02*
X99479371Y-108558952D01*
X100012704Y-108139904D01*
X100012704Y-108558952D01*
X63081038Y-147348344D02*
X63347704Y-146967392D01*
X63538180Y-147348344D02*
X63538180Y-146548344D01*
X63233419Y-146548344D01*
X63157228Y-146586440D01*
X63119133Y-146624535D01*
X63081038Y-146700725D01*
X63081038Y-146815011D01*
X63119133Y-146891201D01*
X63157228Y-146929297D01*
X63233419Y-146967392D01*
X63538180Y-146967392D01*
X62738180Y-146929297D02*
X62471514Y-146929297D01*
X62357228Y-147348344D02*
X62738180Y-147348344D01*
X62738180Y-146548344D01*
X62357228Y-146548344D01*
X62052466Y-147310249D02*
X61938180Y-147348344D01*
X61747704Y-147348344D01*
X61671514Y-147310249D01*
X61633419Y-147272154D01*
X61595323Y-147195963D01*
X61595323Y-147119773D01*
X61633419Y-147043582D01*
X61671514Y-147005487D01*
X61747704Y-146967392D01*
X61900085Y-146929297D01*
X61976276Y-146891201D01*
X62014371Y-146853106D01*
X62052466Y-146776916D01*
X62052466Y-146700725D01*
X62014371Y-146624535D01*
X61976276Y-146586440D01*
X61900085Y-146548344D01*
X61709609Y-146548344D01*
X61595323Y-146586440D01*
X124138849Y-135156511D02*
X124176944Y-135270797D01*
X124176944Y-135461273D01*
X124138849Y-135537463D01*
X124100754Y-135575559D01*
X124024563Y-135613654D01*
X123948373Y-135613654D01*
X123872182Y-135575559D01*
X123834087Y-135537463D01*
X123795992Y-135461273D01*
X123757897Y-135308892D01*
X123719801Y-135232701D01*
X123681706Y-135194606D01*
X123605516Y-135156511D01*
X123529325Y-135156511D01*
X123453135Y-135194606D01*
X123415040Y-135232701D01*
X123376944Y-135308892D01*
X123376944Y-135499368D01*
X123415040Y-135613654D01*
X124176944Y-135956511D02*
X123376944Y-135956511D01*
X123376944Y-136146987D01*
X123415040Y-136261273D01*
X123491230Y-136337463D01*
X123567420Y-136375559D01*
X123719801Y-136413654D01*
X123834087Y-136413654D01*
X123986468Y-136375559D01*
X124062659Y-136337463D01*
X124138849Y-136261273D01*
X124176944Y-136146987D01*
X124176944Y-135956511D01*
X123948373Y-136718416D02*
X123948373Y-137099368D01*
X124176944Y-136642225D02*
X123376944Y-136908892D01*
X124176944Y-137175559D01*
D11*
X69255091Y-150174531D02*
X69755091Y-149460245D01*
X70112234Y-150174531D02*
X70112234Y-148674531D01*
X69540805Y-148674531D01*
X69397948Y-148745960D01*
X69326520Y-148817388D01*
X69255091Y-148960245D01*
X69255091Y-149174531D01*
X69326520Y-149317388D01*
X69397948Y-149388817D01*
X69540805Y-149460245D01*
X70112234Y-149460245D01*
X68612234Y-149388817D02*
X68112234Y-149388817D01*
X67897948Y-150174531D02*
X68612234Y-150174531D01*
X68612234Y-148674531D01*
X67897948Y-148674531D01*
X67326520Y-150103102D02*
X67112234Y-150174531D01*
X66755091Y-150174531D01*
X66612234Y-150103102D01*
X66540805Y-150031674D01*
X66469377Y-149888817D01*
X66469377Y-149745960D01*
X66540805Y-149603102D01*
X66612234Y-149531674D01*
X66755091Y-149460245D01*
X67040805Y-149388817D01*
X67183662Y-149317388D01*
X67255091Y-149245960D01*
X67326520Y-149103102D01*
X67326520Y-148960245D01*
X67255091Y-148817388D01*
X67183662Y-148745960D01*
X67040805Y-148674531D01*
X66683662Y-148674531D01*
X66469377Y-148745960D01*
X65826520Y-149388817D02*
X65326520Y-149388817D01*
X65112234Y-150174531D02*
X65826520Y-150174531D01*
X65826520Y-148674531D01*
X65112234Y-148674531D01*
X64683662Y-148674531D02*
X63826520Y-148674531D01*
X64255091Y-150174531D02*
X64255091Y-148674531D01*
D10*
X127394600Y-138394940D02*
X126886600Y-138394940D01*
X127394600Y-136616940D02*
X127394600Y-138394940D01*
X126886600Y-136616940D02*
X127394600Y-136616940D01*
X127394600Y-135600940D02*
X126886600Y-135600940D01*
X127394600Y-133568940D02*
X127394600Y-135600940D01*
X126886600Y-133568940D02*
X127394600Y-133568940D01*
X132798729Y-134950604D02*
X132798729Y-134150604D01*
X132493967Y-134150604D01*
X132417777Y-134188700D01*
X132379681Y-134226795D01*
X132341586Y-134302985D01*
X132341586Y-134417271D01*
X132379681Y-134493461D01*
X132417777Y-134531557D01*
X132493967Y-134569652D01*
X132798729Y-134569652D01*
X131541586Y-134950604D02*
X131808253Y-134569652D01*
X131998729Y-134950604D02*
X131998729Y-134150604D01*
X131693967Y-134150604D01*
X131617777Y-134188700D01*
X131579681Y-134226795D01*
X131541586Y-134302985D01*
X131541586Y-134417271D01*
X131579681Y-134493461D01*
X131617777Y-134531557D01*
X131693967Y-134569652D01*
X131998729Y-134569652D01*
X131046348Y-134150604D02*
X130893967Y-134150604D01*
X130817777Y-134188700D01*
X130741586Y-134264890D01*
X130703491Y-134417271D01*
X130703491Y-134683938D01*
X130741586Y-134836319D01*
X130817777Y-134912509D01*
X130893967Y-134950604D01*
X131046348Y-134950604D01*
X131122539Y-134912509D01*
X131198729Y-134836319D01*
X131236824Y-134683938D01*
X131236824Y-134417271D01*
X131198729Y-134264890D01*
X131122539Y-134188700D01*
X131046348Y-134150604D01*
X129941586Y-134188700D02*
X130017777Y-134150604D01*
X130132062Y-134150604D01*
X130246348Y-134188700D01*
X130322539Y-134264890D01*
X130360634Y-134341080D01*
X130398729Y-134493461D01*
X130398729Y-134607747D01*
X130360634Y-134760128D01*
X130322539Y-134836319D01*
X130246348Y-134912509D01*
X130132062Y-134950604D01*
X130055872Y-134950604D01*
X129941586Y-134912509D01*
X129903491Y-134874414D01*
X129903491Y-134607747D01*
X130055872Y-134607747D01*
X129560634Y-134645842D02*
X128951110Y-134645842D01*
X128303491Y-134531557D02*
X128189205Y-134569652D01*
X128151110Y-134607747D01*
X128113015Y-134683938D01*
X128113015Y-134798223D01*
X128151110Y-134874414D01*
X128189205Y-134912509D01*
X128265396Y-134950604D01*
X128570158Y-134950604D01*
X128570158Y-134150604D01*
X128303491Y-134150604D01*
X128227300Y-134188700D01*
X128189205Y-134226795D01*
X128151110Y-134302985D01*
X128151110Y-134379176D01*
X128189205Y-134455366D01*
X128227300Y-134493461D01*
X128303491Y-134531557D01*
X128570158Y-134531557D01*
X132741586Y-137800484D02*
X132741586Y-137000484D01*
X132436824Y-137000484D01*
X132360634Y-137038580D01*
X132322539Y-137076675D01*
X132284443Y-137152865D01*
X132284443Y-137267151D01*
X132322539Y-137343341D01*
X132360634Y-137381437D01*
X132436824Y-137419532D01*
X132741586Y-137419532D01*
X131484443Y-137800484D02*
X131751110Y-137419532D01*
X131941586Y-137800484D02*
X131941586Y-137000484D01*
X131636824Y-137000484D01*
X131560634Y-137038580D01*
X131522539Y-137076675D01*
X131484443Y-137152865D01*
X131484443Y-137267151D01*
X131522539Y-137343341D01*
X131560634Y-137381437D01*
X131636824Y-137419532D01*
X131941586Y-137419532D01*
X130989205Y-137000484D02*
X130836824Y-137000484D01*
X130760634Y-137038580D01*
X130684443Y-137114770D01*
X130646348Y-137267151D01*
X130646348Y-137533818D01*
X130684443Y-137686199D01*
X130760634Y-137762389D01*
X130836824Y-137800484D01*
X130989205Y-137800484D01*
X131065396Y-137762389D01*
X131141586Y-137686199D01*
X131179681Y-137533818D01*
X131179681Y-137267151D01*
X131141586Y-137114770D01*
X131065396Y-137038580D01*
X130989205Y-137000484D01*
X129884443Y-137038580D02*
X129960634Y-137000484D01*
X130074920Y-137000484D01*
X130189205Y-137038580D01*
X130265396Y-137114770D01*
X130303491Y-137190960D01*
X130341586Y-137343341D01*
X130341586Y-137457627D01*
X130303491Y-137610008D01*
X130265396Y-137686199D01*
X130189205Y-137762389D01*
X130074920Y-137800484D01*
X129998729Y-137800484D01*
X129884443Y-137762389D01*
X129846348Y-137724294D01*
X129846348Y-137457627D01*
X129998729Y-137457627D01*
X129503491Y-137495722D02*
X128893967Y-137495722D01*
X128551110Y-137571913D02*
X128170158Y-137571913D01*
X128627300Y-137800484D02*
X128360634Y-137000484D01*
X128093967Y-137800484D01*
X120901384Y-137066910D02*
X120101384Y-137066910D01*
X120101384Y-137371672D01*
X120139480Y-137447862D01*
X120177575Y-137485958D01*
X120253765Y-137524053D01*
X120368051Y-137524053D01*
X120444241Y-137485958D01*
X120482337Y-137447862D01*
X120520432Y-137371672D01*
X120520432Y-137066910D01*
X120901384Y-138324053D02*
X120520432Y-138057386D01*
X120901384Y-137866910D02*
X120101384Y-137866910D01*
X120101384Y-138171672D01*
X120139480Y-138247862D01*
X120177575Y-138285958D01*
X120253765Y-138324053D01*
X120368051Y-138324053D01*
X120444241Y-138285958D01*
X120482337Y-138247862D01*
X120520432Y-138171672D01*
X120520432Y-137866910D01*
X120101384Y-138819291D02*
X120101384Y-138971672D01*
X120139480Y-139047862D01*
X120215670Y-139124053D01*
X120368051Y-139162148D01*
X120634718Y-139162148D01*
X120787099Y-139124053D01*
X120863289Y-139047862D01*
X120901384Y-138971672D01*
X120901384Y-138819291D01*
X120863289Y-138743100D01*
X120787099Y-138666910D01*
X120634718Y-138628815D01*
X120368051Y-138628815D01*
X120215670Y-138666910D01*
X120139480Y-138743100D01*
X120101384Y-138819291D01*
X120139480Y-139924053D02*
X120101384Y-139847862D01*
X120101384Y-139733577D01*
X120139480Y-139619291D01*
X120215670Y-139543100D01*
X120291860Y-139505005D01*
X120444241Y-139466910D01*
X120558527Y-139466910D01*
X120710908Y-139505005D01*
X120787099Y-139543100D01*
X120863289Y-139619291D01*
X120901384Y-139733577D01*
X120901384Y-139809767D01*
X120863289Y-139924053D01*
X120825194Y-139962148D01*
X120558527Y-139962148D01*
X120558527Y-139809767D01*
X120901384Y-140762148D02*
X120520432Y-140495481D01*
X120901384Y-140305005D02*
X120101384Y-140305005D01*
X120101384Y-140609767D01*
X120139480Y-140685958D01*
X120177575Y-140724053D01*
X120253765Y-140762148D01*
X120368051Y-140762148D01*
X120444241Y-140724053D01*
X120482337Y-140685958D01*
X120520432Y-140609767D01*
X120520432Y-140305005D01*
X120672813Y-141066910D02*
X120672813Y-141447862D01*
X120901384Y-140990720D02*
X120101384Y-141257386D01*
X120901384Y-141524053D01*
X120901384Y-141790720D02*
X120101384Y-141790720D01*
X120672813Y-142057386D01*
X120101384Y-142324053D01*
X120901384Y-142324053D01*
X120596622Y-142705005D02*
X120596622Y-143314529D01*
X120482337Y-143962148D02*
X120520432Y-144076434D01*
X120558527Y-144114529D01*
X120634718Y-144152624D01*
X120749003Y-144152624D01*
X120825194Y-144114529D01*
X120863289Y-144076434D01*
X120901384Y-144000243D01*
X120901384Y-143695481D01*
X120101384Y-143695481D01*
X120101384Y-143962148D01*
X120139480Y-144038339D01*
X120177575Y-144076434D01*
X120253765Y-144114529D01*
X120329956Y-144114529D01*
X120406146Y-144076434D01*
X120444241Y-144038339D01*
X120482337Y-143962148D01*
X120482337Y-143695481D01*
X121501384Y-136476434D02*
X122301384Y-136666910D01*
X121729956Y-136819291D01*
X122301384Y-136971672D01*
X121501384Y-137162148D01*
X122301384Y-137924053D02*
X121920432Y-137657386D01*
X122301384Y-137466910D02*
X121501384Y-137466910D01*
X121501384Y-137771672D01*
X121539480Y-137847862D01*
X121577575Y-137885958D01*
X121653765Y-137924053D01*
X121768051Y-137924053D01*
X121844241Y-137885958D01*
X121882337Y-137847862D01*
X121920432Y-137771672D01*
X121920432Y-137466910D01*
X122301384Y-138266910D02*
X121501384Y-138266910D01*
X121501384Y-138533577D02*
X121501384Y-138990720D01*
X122301384Y-138762148D02*
X121501384Y-138762148D01*
X121882337Y-139257386D02*
X121882337Y-139524053D01*
X122301384Y-139638339D02*
X122301384Y-139257386D01*
X121501384Y-139257386D01*
X121501384Y-139638339D01*
X121882337Y-140590720D02*
X121882337Y-140857386D01*
X122301384Y-140971672D02*
X122301384Y-140590720D01*
X121501384Y-140590720D01*
X121501384Y-140971672D01*
X122301384Y-141314529D02*
X121501384Y-141314529D01*
X122301384Y-141771672D01*
X121501384Y-141771672D01*
X122072813Y-142114529D02*
X122072813Y-142495481D01*
X122301384Y-142038339D02*
X121501384Y-142305005D01*
X122301384Y-142571672D01*
X121882337Y-143105005D02*
X121920432Y-143219291D01*
X121958527Y-143257386D01*
X122034718Y-143295481D01*
X122149003Y-143295481D01*
X122225194Y-143257386D01*
X122263289Y-143219291D01*
X122301384Y-143143100D01*
X122301384Y-142838339D01*
X121501384Y-142838339D01*
X121501384Y-143105005D01*
X121539480Y-143181196D01*
X121577575Y-143219291D01*
X121653765Y-143257386D01*
X121729956Y-143257386D01*
X121806146Y-143219291D01*
X121844241Y-143181196D01*
X121882337Y-143105005D01*
X121882337Y-142838339D01*
X122301384Y-144019291D02*
X122301384Y-143638339D01*
X121501384Y-143638339D01*
X121882337Y-144285958D02*
X121882337Y-144552624D01*
X122301384Y-144666910D02*
X122301384Y-144285958D01*
X121501384Y-144285958D01*
X121501384Y-144666910D01*
X95465824Y-136948793D02*
X94665824Y-136948793D01*
X94665824Y-137253555D01*
X94703920Y-137329745D01*
X94742015Y-137367840D01*
X94818205Y-137405936D01*
X94932491Y-137405936D01*
X95008681Y-137367840D01*
X95046777Y-137329745D01*
X95084872Y-137253555D01*
X95084872Y-136948793D01*
X95465824Y-138205936D02*
X95084872Y-137939269D01*
X95465824Y-137748793D02*
X94665824Y-137748793D01*
X94665824Y-138053555D01*
X94703920Y-138129745D01*
X94742015Y-138167840D01*
X94818205Y-138205936D01*
X94932491Y-138205936D01*
X95008681Y-138167840D01*
X95046777Y-138129745D01*
X95084872Y-138053555D01*
X95084872Y-137748793D01*
X94665824Y-138701174D02*
X94665824Y-138853555D01*
X94703920Y-138929745D01*
X94780110Y-139005936D01*
X94932491Y-139044031D01*
X95199158Y-139044031D01*
X95351539Y-139005936D01*
X95427729Y-138929745D01*
X95465824Y-138853555D01*
X95465824Y-138701174D01*
X95427729Y-138624983D01*
X95351539Y-138548793D01*
X95199158Y-138510698D01*
X94932491Y-138510698D01*
X94780110Y-138548793D01*
X94703920Y-138624983D01*
X94665824Y-138701174D01*
X94703920Y-139805936D02*
X94665824Y-139729745D01*
X94665824Y-139615460D01*
X94703920Y-139501174D01*
X94780110Y-139424983D01*
X94856300Y-139386888D01*
X95008681Y-139348793D01*
X95122967Y-139348793D01*
X95275348Y-139386888D01*
X95351539Y-139424983D01*
X95427729Y-139501174D01*
X95465824Y-139615460D01*
X95465824Y-139691650D01*
X95427729Y-139805936D01*
X95389634Y-139844031D01*
X95122967Y-139844031D01*
X95122967Y-139691650D01*
X95465824Y-140644031D02*
X95084872Y-140377364D01*
X95465824Y-140186888D02*
X94665824Y-140186888D01*
X94665824Y-140491650D01*
X94703920Y-140567840D01*
X94742015Y-140605936D01*
X94818205Y-140644031D01*
X94932491Y-140644031D01*
X95008681Y-140605936D01*
X95046777Y-140567840D01*
X95084872Y-140491650D01*
X95084872Y-140186888D01*
X95237253Y-140948793D02*
X95237253Y-141329745D01*
X95465824Y-140872602D02*
X94665824Y-141139269D01*
X95465824Y-141405936D01*
X95465824Y-141672602D02*
X94665824Y-141672602D01*
X95237253Y-141939269D01*
X94665824Y-142205936D01*
X95465824Y-142205936D01*
X95161062Y-142586888D02*
X95161062Y-143196412D01*
X95237253Y-143539269D02*
X95237253Y-143920221D01*
X95465824Y-143463079D02*
X94665824Y-143729745D01*
X95465824Y-143996412D01*
X96065824Y-136301174D02*
X96865824Y-136491650D01*
X96294396Y-136644031D01*
X96865824Y-136796412D01*
X96065824Y-136986888D01*
X96865824Y-137748793D02*
X96484872Y-137482126D01*
X96865824Y-137291650D02*
X96065824Y-137291650D01*
X96065824Y-137596412D01*
X96103920Y-137672602D01*
X96142015Y-137710698D01*
X96218205Y-137748793D01*
X96332491Y-137748793D01*
X96408681Y-137710698D01*
X96446777Y-137672602D01*
X96484872Y-137596412D01*
X96484872Y-137291650D01*
X96865824Y-138091650D02*
X96065824Y-138091650D01*
X96065824Y-138358317D02*
X96065824Y-138815460D01*
X96865824Y-138586888D02*
X96065824Y-138586888D01*
X96446777Y-139082126D02*
X96446777Y-139348793D01*
X96865824Y-139463079D02*
X96865824Y-139082126D01*
X96065824Y-139082126D01*
X96065824Y-139463079D01*
X96446777Y-140415460D02*
X96446777Y-140682126D01*
X96865824Y-140796412D02*
X96865824Y-140415460D01*
X96065824Y-140415460D01*
X96065824Y-140796412D01*
X96865824Y-141139269D02*
X96065824Y-141139269D01*
X96865824Y-141596412D01*
X96065824Y-141596412D01*
X96637253Y-141939269D02*
X96637253Y-142320221D01*
X96865824Y-141863079D02*
X96065824Y-142129745D01*
X96865824Y-142396412D01*
X96446777Y-142929745D02*
X96484872Y-143044031D01*
X96522967Y-143082126D01*
X96599158Y-143120221D01*
X96713443Y-143120221D01*
X96789634Y-143082126D01*
X96827729Y-143044031D01*
X96865824Y-142967840D01*
X96865824Y-142663079D01*
X96065824Y-142663079D01*
X96065824Y-142929745D01*
X96103920Y-143005936D01*
X96142015Y-143044031D01*
X96218205Y-143082126D01*
X96294396Y-143082126D01*
X96370586Y-143044031D01*
X96408681Y-143005936D01*
X96446777Y-142929745D01*
X96446777Y-142663079D01*
X96865824Y-143844031D02*
X96865824Y-143463079D01*
X96065824Y-143463079D01*
X96446777Y-144110698D02*
X96446777Y-144377364D01*
X96865824Y-144491650D02*
X96865824Y-144110698D01*
X96065824Y-144110698D01*
X96065824Y-144491650D01*
D11*
X59811977Y-49881540D02*
X59954834Y-49810111D01*
X60169120Y-49810111D01*
X60383405Y-49881540D01*
X60526262Y-50024397D01*
X60597691Y-50167254D01*
X60669120Y-50452968D01*
X60669120Y-50667254D01*
X60597691Y-50952968D01*
X60526262Y-51095825D01*
X60383405Y-51238682D01*
X60169120Y-51310111D01*
X60026262Y-51310111D01*
X59811977Y-51238682D01*
X59740548Y-51167254D01*
X59740548Y-50667254D01*
X60026262Y-50667254D01*
X59097691Y-51310111D02*
X59097691Y-49810111D01*
X58240548Y-51310111D01*
X58240548Y-49810111D01*
X57526262Y-51310111D02*
X57526262Y-49810111D01*
X57169120Y-49810111D01*
X56954834Y-49881540D01*
X56811977Y-50024397D01*
X56740548Y-50167254D01*
X56669120Y-50452968D01*
X56669120Y-50667254D01*
X56740548Y-50952968D01*
X56811977Y-51095825D01*
X56954834Y-51238682D01*
X57169120Y-51310111D01*
X57526262Y-51310111D01*
X47463994Y-43785848D02*
X47463994Y-45285848D01*
X47821137Y-45285848D01*
X48035422Y-45214420D01*
X48178280Y-45071562D01*
X48249708Y-44928705D01*
X48321137Y-44642991D01*
X48321137Y-44428705D01*
X48249708Y-44142991D01*
X48178280Y-44000134D01*
X48035422Y-43857277D01*
X47821137Y-43785848D01*
X47463994Y-43785848D01*
X49821137Y-43928705D02*
X49749708Y-43857277D01*
X49535422Y-43785848D01*
X49392565Y-43785848D01*
X49178280Y-43857277D01*
X49035422Y-44000134D01*
X48963994Y-44142991D01*
X48892565Y-44428705D01*
X48892565Y-44642991D01*
X48963994Y-44928705D01*
X49035422Y-45071562D01*
X49178280Y-45214420D01*
X49392565Y-45285848D01*
X49535422Y-45285848D01*
X49749708Y-45214420D01*
X49821137Y-45142991D01*
X51249708Y-43785848D02*
X50392565Y-43785848D01*
X50821137Y-43785848D02*
X50821137Y-45285848D01*
X50678280Y-45071562D01*
X50535422Y-44928705D01*
X50392565Y-44857277D01*
X51821137Y-45142991D02*
X51892565Y-45214420D01*
X52035422Y-45285848D01*
X52392565Y-45285848D01*
X52535422Y-45214420D01*
X52606851Y-45142991D01*
X52678280Y-45000134D01*
X52678280Y-44857277D01*
X52606851Y-44642991D01*
X51749708Y-43785848D01*
X52678280Y-43785848D01*
X53106851Y-45285848D02*
X53606851Y-43785848D01*
X54106851Y-45285848D01*
D10*
X71249816Y-147333100D02*
X71173625Y-147371195D01*
X71059340Y-147371195D01*
X70945054Y-147333100D01*
X70868863Y-147256909D01*
X70830768Y-147180719D01*
X70792673Y-147028338D01*
X70792673Y-146914052D01*
X70830768Y-146761671D01*
X70868863Y-146685480D01*
X70945054Y-146609290D01*
X71059340Y-146571195D01*
X71135530Y-146571195D01*
X71249816Y-146609290D01*
X71287911Y-146647385D01*
X71287911Y-146914052D01*
X71135530Y-146914052D01*
X71630768Y-146571195D02*
X71630768Y-147371195D01*
X72087911Y-146571195D01*
X72087911Y-147371195D01*
X72468863Y-146571195D02*
X72468863Y-147371195D01*
X72659340Y-147371195D01*
X72773625Y-147333100D01*
X72849816Y-147256909D01*
X72887911Y-147180719D01*
X72926006Y-147028338D01*
X72926006Y-146914052D01*
X72887911Y-146761671D01*
X72849816Y-146685480D01*
X72773625Y-146609290D01*
X72659340Y-146571195D01*
X72468863Y-146571195D01*
X109033464Y-140508300D02*
X108233464Y-140508300D01*
X108804893Y-140774967D01*
X108233464Y-141041634D01*
X109033464Y-141041634D01*
X109033464Y-141422586D02*
X108233464Y-141422586D01*
X108233464Y-141727348D01*
X108271560Y-141803539D01*
X108309655Y-141841634D01*
X108385845Y-141879729D01*
X108500131Y-141879729D01*
X108576321Y-141841634D01*
X108614417Y-141803539D01*
X108652512Y-141727348D01*
X108652512Y-141422586D01*
X108233464Y-142146396D02*
X108233464Y-142641634D01*
X108538226Y-142374967D01*
X108538226Y-142489253D01*
X108576321Y-142565443D01*
X108614417Y-142603539D01*
X108690607Y-142641634D01*
X108881083Y-142641634D01*
X108957274Y-142603539D01*
X108995369Y-142565443D01*
X109033464Y-142489253D01*
X109033464Y-142260681D01*
X108995369Y-142184491D01*
X108957274Y-142146396D01*
X84880604Y-140416860D02*
X84080604Y-140416860D01*
X84652033Y-140683527D01*
X84080604Y-140950194D01*
X84880604Y-140950194D01*
X84880604Y-141331146D02*
X84080604Y-141331146D01*
X84080604Y-141635908D01*
X84118700Y-141712099D01*
X84156795Y-141750194D01*
X84232985Y-141788289D01*
X84347271Y-141788289D01*
X84423461Y-141750194D01*
X84461557Y-141712099D01*
X84499652Y-141635908D01*
X84499652Y-141331146D01*
X84156795Y-142093051D02*
X84118700Y-142131146D01*
X84080604Y-142207337D01*
X84080604Y-142397813D01*
X84118700Y-142474003D01*
X84156795Y-142512099D01*
X84232985Y-142550194D01*
X84309176Y-142550194D01*
X84423461Y-142512099D01*
X84880604Y-142054956D01*
X84880604Y-142550194D01*
X71233099Y-116621964D02*
X71233099Y-115821964D01*
X70966432Y-116393393D01*
X70699765Y-115821964D01*
X70699765Y-116621964D01*
X70318813Y-116621964D02*
X70318813Y-115821964D01*
X70014051Y-115821964D01*
X69937860Y-115860060D01*
X69899765Y-115898155D01*
X69861670Y-115974345D01*
X69861670Y-116088631D01*
X69899765Y-116164821D01*
X69937860Y-116202917D01*
X70014051Y-116241012D01*
X70318813Y-116241012D01*
X69366432Y-115821964D02*
X69290241Y-115821964D01*
X69214051Y-115860060D01*
X69175956Y-115898155D01*
X69137860Y-115974345D01*
X69099765Y-116126726D01*
X69099765Y-116317202D01*
X69137860Y-116469583D01*
X69175956Y-116545774D01*
X69214051Y-116583869D01*
X69290241Y-116621964D01*
X69366432Y-116621964D01*
X69442622Y-116583869D01*
X69480718Y-116545774D01*
X69518813Y-116469583D01*
X69556908Y-116317202D01*
X69556908Y-116126726D01*
X69518813Y-115974345D01*
X69480718Y-115898155D01*
X69442622Y-115860060D01*
X69366432Y-115821964D01*
X93056964Y-141675419D02*
X93056964Y-142170657D01*
X93361726Y-141903990D01*
X93361726Y-142018276D01*
X93399821Y-142094466D01*
X93437917Y-142132561D01*
X93514107Y-142170657D01*
X93704583Y-142170657D01*
X93780774Y-142132561D01*
X93818869Y-142094466D01*
X93856964Y-142018276D01*
X93856964Y-141789704D01*
X93818869Y-141713514D01*
X93780774Y-141675419D01*
X93323631Y-142437323D02*
X93856964Y-142627800D01*
X93323631Y-142818276D01*
X93056964Y-143275419D02*
X93056964Y-143351609D01*
X93095060Y-143427800D01*
X93133155Y-143465895D01*
X93209345Y-143503990D01*
X93361726Y-143542085D01*
X93552202Y-143542085D01*
X93704583Y-143503990D01*
X93780774Y-143465895D01*
X93818869Y-143427800D01*
X93856964Y-143351609D01*
X93856964Y-143275419D01*
X93818869Y-143199228D01*
X93780774Y-143161133D01*
X93704583Y-143123038D01*
X93552202Y-143084942D01*
X93361726Y-143084942D01*
X93209345Y-143123038D01*
X93133155Y-143161133D01*
X93095060Y-143199228D01*
X93056964Y-143275419D01*
D11*
X87983140Y-149687540D02*
X87268854Y-149687540D01*
X88125997Y-150116111D02*
X87625997Y-148616111D01*
X87125997Y-150116111D01*
X86625997Y-148616111D02*
X86625997Y-149830397D01*
X86554568Y-149973254D01*
X86483140Y-150044682D01*
X86340282Y-150116111D01*
X86054568Y-150116111D01*
X85911711Y-150044682D01*
X85840282Y-149973254D01*
X85768854Y-149830397D01*
X85768854Y-148616111D01*
X85197425Y-148616111D02*
X84197425Y-150116111D01*
X84197425Y-148616111D02*
X85197425Y-150116111D01*
X83625997Y-149544682D02*
X82483140Y-149544682D01*
X80983140Y-150116111D02*
X81840282Y-150116111D01*
X81411711Y-150116111D02*
X81411711Y-148616111D01*
X81554568Y-148830397D01*
X81697425Y-148973254D01*
X81840282Y-149044682D01*
X111866760Y-149687540D02*
X111152474Y-149687540D01*
X112009617Y-150116111D02*
X111509617Y-148616111D01*
X111009617Y-150116111D01*
X110509617Y-148616111D02*
X110509617Y-149830397D01*
X110438188Y-149973254D01*
X110366760Y-150044682D01*
X110223902Y-150116111D01*
X109938188Y-150116111D01*
X109795331Y-150044682D01*
X109723902Y-149973254D01*
X109652474Y-149830397D01*
X109652474Y-148616111D01*
X109081045Y-148616111D02*
X108081045Y-150116111D01*
X108081045Y-148616111D02*
X109081045Y-150116111D01*
X107509617Y-149544682D02*
X106366760Y-149544682D01*
X105723902Y-148758968D02*
X105652474Y-148687540D01*
X105509617Y-148616111D01*
X105152474Y-148616111D01*
X105009617Y-148687540D01*
X104938188Y-148758968D01*
X104866760Y-148901825D01*
X104866760Y-149044682D01*
X104938188Y-149258968D01*
X105795331Y-150116111D01*
X104866760Y-150116111D01*
X139593140Y-54740131D02*
X139593140Y-53240131D01*
X139235997Y-53240131D01*
X139021711Y-53311560D01*
X138878854Y-53454417D01*
X138807425Y-53597274D01*
X138735997Y-53882988D01*
X138735997Y-54097274D01*
X138807425Y-54382988D01*
X138878854Y-54525845D01*
X139021711Y-54668702D01*
X139235997Y-54740131D01*
X139593140Y-54740131D01*
X138164568Y-54311560D02*
X137450282Y-54311560D01*
X138307425Y-54740131D02*
X137807425Y-53240131D01*
X137307425Y-54740131D01*
X135950282Y-54597274D02*
X136021711Y-54668702D01*
X136235997Y-54740131D01*
X136378854Y-54740131D01*
X136593140Y-54668702D01*
X136735997Y-54525845D01*
X136807425Y-54382988D01*
X136878854Y-54097274D01*
X136878854Y-53882988D01*
X136807425Y-53597274D01*
X136735997Y-53454417D01*
X136593140Y-53311560D01*
X136378854Y-53240131D01*
X136235997Y-53240131D01*
X136021711Y-53311560D01*
X135950282Y-53382988D01*
X135450282Y-53240131D02*
X134521711Y-53240131D01*
X135021711Y-53811560D01*
X134807425Y-53811560D01*
X134664568Y-53882988D01*
X134593140Y-53954417D01*
X134521711Y-54097274D01*
X134521711Y-54454417D01*
X134593140Y-54597274D01*
X134664568Y-54668702D01*
X134807425Y-54740131D01*
X135235997Y-54740131D01*
X135378854Y-54668702D01*
X135450282Y-54597274D01*
X125902540Y-54740131D02*
X125902540Y-53240131D01*
X125545397Y-53240131D01*
X125331111Y-53311560D01*
X125188254Y-53454417D01*
X125116825Y-53597274D01*
X125045397Y-53882988D01*
X125045397Y-54097274D01*
X125116825Y-54382988D01*
X125188254Y-54525845D01*
X125331111Y-54668702D01*
X125545397Y-54740131D01*
X125902540Y-54740131D01*
X124473968Y-54311560D02*
X123759682Y-54311560D01*
X124616825Y-54740131D02*
X124116825Y-53240131D01*
X123616825Y-54740131D01*
X122259682Y-54597274D02*
X122331111Y-54668702D01*
X122545397Y-54740131D01*
X122688254Y-54740131D01*
X122902540Y-54668702D01*
X123045397Y-54525845D01*
X123116825Y-54382988D01*
X123188254Y-54097274D01*
X123188254Y-53882988D01*
X123116825Y-53597274D01*
X123045397Y-53454417D01*
X122902540Y-53311560D01*
X122688254Y-53240131D01*
X122545397Y-53240131D01*
X122331111Y-53311560D01*
X122259682Y-53382988D01*
X121688254Y-53382988D02*
X121616825Y-53311560D01*
X121473968Y-53240131D01*
X121116825Y-53240131D01*
X120973968Y-53311560D01*
X120902540Y-53382988D01*
X120831111Y-53525845D01*
X120831111Y-53668702D01*
X120902540Y-53882988D01*
X121759682Y-54740131D01*
X120831111Y-54740131D01*
X111470260Y-54653771D02*
X111470260Y-53153771D01*
X111113117Y-53153771D01*
X110898831Y-53225200D01*
X110755974Y-53368057D01*
X110684545Y-53510914D01*
X110613117Y-53796628D01*
X110613117Y-54010914D01*
X110684545Y-54296628D01*
X110755974Y-54439485D01*
X110898831Y-54582342D01*
X111113117Y-54653771D01*
X111470260Y-54653771D01*
X110041688Y-54225200D02*
X109327402Y-54225200D01*
X110184545Y-54653771D02*
X109684545Y-53153771D01*
X109184545Y-54653771D01*
X107827402Y-54510914D02*
X107898831Y-54582342D01*
X108113117Y-54653771D01*
X108255974Y-54653771D01*
X108470260Y-54582342D01*
X108613117Y-54439485D01*
X108684545Y-54296628D01*
X108755974Y-54010914D01*
X108755974Y-53796628D01*
X108684545Y-53510914D01*
X108613117Y-53368057D01*
X108470260Y-53225200D01*
X108255974Y-53153771D01*
X108113117Y-53153771D01*
X107898831Y-53225200D01*
X107827402Y-53296628D01*
X106398831Y-54653771D02*
X107255974Y-54653771D01*
X106827402Y-54653771D02*
X106827402Y-53153771D01*
X106970260Y-53368057D01*
X107113117Y-53510914D01*
X107255974Y-53582342D01*
X97551060Y-54740131D02*
X97551060Y-53240131D01*
X97193917Y-53240131D01*
X96979631Y-53311560D01*
X96836774Y-53454417D01*
X96765345Y-53597274D01*
X96693917Y-53882988D01*
X96693917Y-54097274D01*
X96765345Y-54382988D01*
X96836774Y-54525845D01*
X96979631Y-54668702D01*
X97193917Y-54740131D01*
X97551060Y-54740131D01*
X96122488Y-54311560D02*
X95408202Y-54311560D01*
X96265345Y-54740131D02*
X95765345Y-53240131D01*
X95265345Y-54740131D01*
X93908202Y-54597274D02*
X93979631Y-54668702D01*
X94193917Y-54740131D01*
X94336774Y-54740131D01*
X94551060Y-54668702D01*
X94693917Y-54525845D01*
X94765345Y-54382988D01*
X94836774Y-54097274D01*
X94836774Y-53882988D01*
X94765345Y-53597274D01*
X94693917Y-53454417D01*
X94551060Y-53311560D01*
X94336774Y-53240131D01*
X94193917Y-53240131D01*
X93979631Y-53311560D01*
X93908202Y-53382988D01*
X92979631Y-53240131D02*
X92836774Y-53240131D01*
X92693917Y-53311560D01*
X92622488Y-53382988D01*
X92551060Y-53525845D01*
X92479631Y-53811560D01*
X92479631Y-54168702D01*
X92551060Y-54454417D01*
X92622488Y-54597274D01*
X92693917Y-54668702D01*
X92836774Y-54740131D01*
X92979631Y-54740131D01*
X93122488Y-54668702D01*
X93193917Y-54597274D01*
X93265345Y-54454417D01*
X93336774Y-54168702D01*
X93336774Y-53811560D01*
X93265345Y-53525845D01*
X93193917Y-53382988D01*
X93122488Y-53311560D01*
X92979631Y-53240131D01*
X83144891Y-54477491D02*
X83144891Y-52977491D01*
X82430605Y-54477491D02*
X82430605Y-52977491D01*
X81573462Y-54477491D01*
X81573462Y-52977491D01*
X80859177Y-53906062D02*
X79716320Y-53906062D01*
X78216320Y-54477491D02*
X79073462Y-54477491D01*
X78644891Y-54477491D02*
X78644891Y-52977491D01*
X78787748Y-53191777D01*
X78930605Y-53334634D01*
X79073462Y-53406062D01*
D10*
X159845186Y-78203116D02*
X159845186Y-77822163D01*
X159616615Y-78279306D02*
X160416615Y-78012640D01*
X159616615Y-77745973D01*
X159616615Y-77479306D02*
X160416615Y-77479306D01*
X160416615Y-77288830D01*
X160378520Y-77174544D01*
X160302329Y-77098354D01*
X160226139Y-77060259D01*
X160073758Y-77022163D01*
X159959472Y-77022163D01*
X159807091Y-77060259D01*
X159730900Y-77098354D01*
X159654710Y-77174544D01*
X159616615Y-77288830D01*
X159616615Y-77479306D01*
X159692805Y-76222163D02*
X159654710Y-76260259D01*
X159616615Y-76374544D01*
X159616615Y-76450735D01*
X159654710Y-76565020D01*
X159730900Y-76641211D01*
X159807091Y-76679306D01*
X159959472Y-76717401D01*
X160073758Y-76717401D01*
X160226139Y-76679306D01*
X160302329Y-76641211D01*
X160378520Y-76565020D01*
X160416615Y-76450735D01*
X160416615Y-76374544D01*
X160378520Y-76260259D01*
X160340424Y-76222163D01*
X158635662Y-78279306D02*
X158597567Y-78165020D01*
X158559472Y-78126925D01*
X158483281Y-78088830D01*
X158368996Y-78088830D01*
X158292805Y-78126925D01*
X158254710Y-78165020D01*
X158216615Y-78241211D01*
X158216615Y-78545973D01*
X159016615Y-78545973D01*
X159016615Y-78279306D01*
X158978520Y-78203116D01*
X158940424Y-78165020D01*
X158864234Y-78126925D01*
X158788043Y-78126925D01*
X158711853Y-78165020D01*
X158673758Y-78203116D01*
X158635662Y-78279306D01*
X158635662Y-78545973D01*
X158292805Y-77288830D02*
X158254710Y-77326925D01*
X158216615Y-77441211D01*
X158216615Y-77517401D01*
X158254710Y-77631687D01*
X158330900Y-77707878D01*
X158407091Y-77745973D01*
X158559472Y-77784068D01*
X158673758Y-77784068D01*
X158826139Y-77745973D01*
X158902329Y-77707878D01*
X158978520Y-77631687D01*
X159016615Y-77517401D01*
X159016615Y-77441211D01*
X158978520Y-77326925D01*
X158940424Y-77288830D01*
X158216615Y-76565020D02*
X158216615Y-76945973D01*
X159016615Y-76945973D01*
X158216615Y-76298354D02*
X159016615Y-76298354D01*
X158216615Y-75841211D02*
X158673758Y-76184068D01*
X159016615Y-75841211D02*
X158559472Y-76298354D01*
X152809386Y-77888156D02*
X152809386Y-77507203D01*
X152580815Y-77964346D02*
X153380815Y-77697680D01*
X152580815Y-77431013D01*
X152580815Y-77164346D02*
X153380815Y-77164346D01*
X153380815Y-76973870D01*
X153342720Y-76859584D01*
X153266529Y-76783394D01*
X153190339Y-76745299D01*
X153037958Y-76707203D01*
X152923672Y-76707203D01*
X152771291Y-76745299D01*
X152695100Y-76783394D01*
X152618910Y-76859584D01*
X152580815Y-76973870D01*
X152580815Y-77164346D01*
X152657005Y-75907203D02*
X152618910Y-75945299D01*
X152580815Y-76059584D01*
X152580815Y-76135775D01*
X152618910Y-76250060D01*
X152695100Y-76326251D01*
X152771291Y-76364346D01*
X152923672Y-76402441D01*
X153037958Y-76402441D01*
X153190339Y-76364346D01*
X153266529Y-76326251D01*
X153342720Y-76250060D01*
X153380815Y-76135775D01*
X153380815Y-76059584D01*
X153342720Y-75945299D01*
X153304624Y-75907203D01*
X151180815Y-78173870D02*
X151180815Y-78554822D01*
X151980815Y-78554822D01*
X151180815Y-77450060D02*
X151561767Y-77716727D01*
X151180815Y-77907203D02*
X151980815Y-77907203D01*
X151980815Y-77602441D01*
X151942720Y-77526251D01*
X151904624Y-77488156D01*
X151828434Y-77450060D01*
X151714148Y-77450060D01*
X151637958Y-77488156D01*
X151599862Y-77526251D01*
X151561767Y-77602441D01*
X151561767Y-77907203D01*
X151257005Y-76650060D02*
X151218910Y-76688156D01*
X151180815Y-76802441D01*
X151180815Y-76878632D01*
X151218910Y-76992918D01*
X151295100Y-77069108D01*
X151371291Y-77107203D01*
X151523672Y-77145299D01*
X151637958Y-77145299D01*
X151790339Y-77107203D01*
X151866529Y-77069108D01*
X151942720Y-76992918D01*
X151980815Y-76878632D01*
X151980815Y-76802441D01*
X151942720Y-76688156D01*
X151904624Y-76650060D01*
X151180815Y-75926251D02*
X151180815Y-76307203D01*
X151980815Y-76307203D01*
X151180815Y-75659584D02*
X151980815Y-75659584D01*
X151180815Y-75202441D02*
X151637958Y-75545299D01*
X151980815Y-75202441D02*
X151523672Y-75659584D01*
D11*
X69373011Y-54574011D02*
X69373011Y-53074011D01*
X68658725Y-54574011D02*
X68658725Y-53074011D01*
X67801582Y-54574011D01*
X67801582Y-53074011D01*
X67087297Y-54002582D02*
X65944440Y-54002582D01*
X64944440Y-53074011D02*
X64801582Y-53074011D01*
X64658725Y-53145440D01*
X64587297Y-53216868D01*
X64515868Y-53359725D01*
X64444440Y-53645440D01*
X64444440Y-54002582D01*
X64515868Y-54288297D01*
X64587297Y-54431154D01*
X64658725Y-54502582D01*
X64801582Y-54574011D01*
X64944440Y-54574011D01*
X65087297Y-54502582D01*
X65158725Y-54431154D01*
X65230154Y-54288297D01*
X65301582Y-54002582D01*
X65301582Y-53645440D01*
X65230154Y-53359725D01*
X65158725Y-53216868D01*
X65087297Y-53145440D01*
X64944440Y-53074011D01*
X146473940Y-143066211D02*
X146473940Y-144280497D01*
X146402511Y-144423354D01*
X146331082Y-144494782D01*
X146188225Y-144566211D01*
X145902511Y-144566211D01*
X145759654Y-144494782D01*
X145688225Y-144423354D01*
X145616797Y-144280497D01*
X145616797Y-143066211D01*
X144973940Y-144494782D02*
X144759654Y-144566211D01*
X144402511Y-144566211D01*
X144259654Y-144494782D01*
X144188225Y-144423354D01*
X144116797Y-144280497D01*
X144116797Y-144137640D01*
X144188225Y-143994782D01*
X144259654Y-143923354D01*
X144402511Y-143851925D01*
X144688225Y-143780497D01*
X144831082Y-143709068D01*
X144902511Y-143637640D01*
X144973940Y-143494782D01*
X144973940Y-143351925D01*
X144902511Y-143209068D01*
X144831082Y-143137640D01*
X144688225Y-143066211D01*
X144331082Y-143066211D01*
X144116797Y-143137640D01*
X142973940Y-143780497D02*
X142759654Y-143851925D01*
X142688225Y-143923354D01*
X142616797Y-144066211D01*
X142616797Y-144280497D01*
X142688225Y-144423354D01*
X142759654Y-144494782D01*
X142902511Y-144566211D01*
X143473940Y-144566211D01*
X143473940Y-143066211D01*
X142973940Y-143066211D01*
X142831082Y-143137640D01*
X142759654Y-143209068D01*
X142688225Y-143351925D01*
X142688225Y-143494782D01*
X142759654Y-143637640D01*
X142831082Y-143709068D01*
X142973940Y-143780497D01*
X143473940Y-143780497D01*
X141973940Y-144566211D02*
X141973940Y-143566211D01*
X141973940Y-143066211D02*
X142045368Y-143137640D01*
X141973940Y-143209068D01*
X141902511Y-143137640D01*
X141973940Y-143066211D01*
X141973940Y-143209068D01*
M02*
