G04 #@! TF.GenerationSoftware,KiCad,Pcbnew,(5.1.6-0-10_14)*
G04 #@! TF.CreationDate,2020-10-12T01:28:03+09:00*
G04 #@! TF.ProjectId,FreeDSP_SMD_AB_plus,46726565-4453-4505-9f53-4d445f41425f,rev?*
G04 #@! TF.SameCoordinates,Original*
G04 #@! TF.FileFunction,Paste,Top*
G04 #@! TF.FilePolarity,Positive*
%FSLAX46Y46*%
G04 Gerber Fmt 4.6, Leading zero omitted, Abs format (unit mm)*
G04 Created by KiCad (PCBNEW (5.1.6-0-10_14)) date 2020-10-12 01:28:03*
%MOMM*%
%LPD*%
G01*
G04 APERTURE LIST*
%ADD10R,1.200000X0.900000*%
%ADD11R,1.500000X1.300000*%
%ADD12R,1.550000X0.600000*%
%ADD13R,0.800000X0.900000*%
%ADD14R,0.900000X1.200000*%
%ADD15R,1.300000X0.250000*%
%ADD16R,0.250000X1.300000*%
%ADD17R,0.900000X0.800000*%
%ADD18R,3.800000X2.000000*%
%ADD19R,1.500000X2.000000*%
%ADD20R,1.200000X2.200000*%
%ADD21R,2.750000X3.050000*%
%ADD22R,1.250000X1.500000*%
%ADD23R,1.500000X1.250000*%
%ADD24R,1.300000X1.500000*%
%ADD25R,0.300000X1.600000*%
%ADD26R,2.500000X2.500000*%
%ADD27R,2.000000X1.600000*%
%ADD28R,1.200000X1.200000*%
%ADD29R,0.600000X1.300000*%
%ADD30R,1.525000X0.650000*%
G04 APERTURE END LIST*
D10*
X61765560Y-149506120D03*
X59565560Y-149506120D03*
D11*
X60345800Y-82159000D03*
X57645800Y-82159000D03*
D12*
X103386000Y-131259000D03*
X103386000Y-132529000D03*
X103386000Y-133799000D03*
X103386000Y-135069000D03*
X108786000Y-135069000D03*
X108786000Y-133799000D03*
X108786000Y-132529000D03*
X108786000Y-131259000D03*
D13*
X95520800Y-61706000D03*
X93620800Y-61706000D03*
X94570800Y-63706000D03*
D14*
X53629700Y-89065300D03*
X56929700Y-89065300D03*
D15*
X81330800Y-101358000D03*
X81330800Y-101858000D03*
X81330800Y-102358000D03*
X81330800Y-102858000D03*
X81330800Y-103358000D03*
X81330800Y-103858000D03*
X81330800Y-104358000D03*
X81330800Y-104858000D03*
X81330800Y-105358000D03*
X81330800Y-105858000D03*
X81330800Y-106358000D03*
X81330800Y-106858000D03*
D16*
X82930800Y-108458000D03*
X83430800Y-108458000D03*
X83930800Y-108458000D03*
X84430800Y-108458000D03*
X84930800Y-108458000D03*
X85430800Y-108458000D03*
X85930800Y-108458000D03*
X86430800Y-108458000D03*
X86930800Y-108458000D03*
X87430800Y-108458000D03*
X87930800Y-108458000D03*
X88430800Y-108458000D03*
D15*
X90030800Y-106858000D03*
X90030800Y-106358000D03*
X90030800Y-105858000D03*
X90030800Y-105358000D03*
X90030800Y-104858000D03*
X90030800Y-104358000D03*
X90030800Y-103858000D03*
X90030800Y-103358000D03*
X90030800Y-102858000D03*
X90030800Y-102358000D03*
X90030800Y-101858000D03*
X90030800Y-101358000D03*
D16*
X88430800Y-99758000D03*
X87930800Y-99758000D03*
X87430800Y-99758000D03*
X86930800Y-99758000D03*
X86430800Y-99758000D03*
X85930800Y-99758000D03*
X85430800Y-99758000D03*
X84930800Y-99758000D03*
X84430800Y-99758000D03*
X83930800Y-99758000D03*
X83430800Y-99758000D03*
X82930800Y-99758000D03*
D12*
X115966000Y-131307000D03*
X115966000Y-132577000D03*
X115966000Y-133847000D03*
X115966000Y-135117000D03*
X121366000Y-135117000D03*
X121366000Y-133847000D03*
X121366000Y-132577000D03*
X121366000Y-131307000D03*
D17*
X103445000Y-63910000D03*
X103445000Y-62010000D03*
X101445000Y-62960000D03*
X134058100Y-62843900D03*
X134058100Y-60943900D03*
X132058100Y-61893900D03*
X127607000Y-60994000D03*
X127607000Y-62894000D03*
X129607000Y-61944000D03*
D13*
X68099100Y-95688900D03*
X69999100Y-95688900D03*
X69049100Y-93688900D03*
D18*
X62357200Y-127569000D03*
D19*
X62357200Y-121269000D03*
X60057200Y-121269000D03*
X64657200Y-121269000D03*
D18*
X90104200Y-132440000D03*
D19*
X90104200Y-126140000D03*
X87804200Y-126140000D03*
X92404200Y-126140000D03*
D20*
X76796800Y-126342000D03*
X81356800Y-126342000D03*
D21*
X80601800Y-118367000D03*
X77551800Y-121717000D03*
X77551800Y-118367000D03*
X80601800Y-121717000D03*
D22*
X82886800Y-69076000D03*
X82886800Y-71576000D03*
D23*
X121651000Y-125432000D03*
X119151000Y-125432000D03*
X78080800Y-80740000D03*
X80580800Y-80740000D03*
D22*
X84156800Y-78220000D03*
X84156800Y-80720000D03*
D23*
X94336800Y-55086000D03*
X96836800Y-55086000D03*
D22*
X95813100Y-71330700D03*
X95813100Y-73830700D03*
X95840800Y-76696000D03*
X95840800Y-79196000D03*
X88220800Y-78220000D03*
X88220800Y-80720000D03*
D23*
X103965000Y-55086000D03*
X101465000Y-55086000D03*
X89510800Y-96488000D03*
X92010800Y-96488000D03*
D22*
X112097000Y-80232000D03*
X112097000Y-82732000D03*
D23*
X127357000Y-54070000D03*
X129857000Y-54070000D03*
D22*
X106255000Y-110438000D03*
X106255000Y-107938000D03*
X106255000Y-101842000D03*
X106255000Y-104342000D03*
X121495000Y-74918000D03*
X121495000Y-77418000D03*
X72218800Y-131052000D03*
X72218800Y-133552000D03*
X110511000Y-125803000D03*
X110511000Y-128303000D03*
D23*
X123273000Y-86274700D03*
X120773000Y-86274700D03*
D22*
X115907000Y-80232000D03*
X115907000Y-82732000D03*
D23*
X136207000Y-54070000D03*
X133707000Y-54070000D03*
D22*
X57515960Y-117507520D03*
X57515960Y-115007520D03*
X70948800Y-108446000D03*
X70948800Y-110946000D03*
D23*
X96898300Y-132521000D03*
X99398300Y-132521000D03*
X96898300Y-129105000D03*
X99398300Y-129105000D03*
X96939700Y-125733000D03*
X99439700Y-125733000D03*
D22*
X75333000Y-112164000D03*
X75333000Y-109664000D03*
X77987300Y-112116000D03*
X77987300Y-109616000D03*
X112474000Y-131878000D03*
X112474000Y-134378000D03*
D23*
X89216800Y-87852000D03*
X86716800Y-87852000D03*
X56934620Y-107306560D03*
X54434620Y-107306560D03*
D24*
X79330800Y-68976000D03*
X79330800Y-71676000D03*
X77044800Y-86408000D03*
X77044800Y-83708000D03*
X77552800Y-75072000D03*
X77552800Y-77772000D03*
D11*
X87632800Y-55086000D03*
X90332800Y-55086000D03*
D24*
X80346800Y-86408000D03*
X80346800Y-83708000D03*
X81362800Y-77772000D03*
X81362800Y-75072000D03*
X123428960Y-100289800D03*
X123428960Y-97589800D03*
X125699720Y-99162040D03*
X125699720Y-96462040D03*
D11*
X94236800Y-58896000D03*
X96936800Y-58896000D03*
D24*
X83902800Y-83708000D03*
X83902800Y-86408000D03*
X98634800Y-64508600D03*
X98634800Y-67208600D03*
X130429200Y-98521960D03*
X130429200Y-95821960D03*
X135560000Y-99985000D03*
X135560000Y-97285000D03*
X140005000Y-99985000D03*
X140005000Y-97285000D03*
X143815000Y-99985000D03*
X143815000Y-97285000D03*
X147625000Y-99985000D03*
X147625000Y-97285000D03*
X100174000Y-71251000D03*
X100174000Y-73951000D03*
X117833340Y-105999720D03*
X117833340Y-103299720D03*
X98126800Y-85392000D03*
X98126800Y-82692000D03*
X99650800Y-76850000D03*
X99650800Y-79550000D03*
D11*
X111415000Y-55086000D03*
X108715000Y-55086000D03*
X88394800Y-84042000D03*
X91094800Y-84042000D03*
D24*
X91776800Y-80820000D03*
X91776800Y-78120000D03*
D11*
X104049000Y-58896000D03*
X101349000Y-58896000D03*
D24*
X94316800Y-82184000D03*
X94316800Y-84884000D03*
X106138000Y-64508600D03*
X106138000Y-67208600D03*
X82796600Y-55202300D03*
X82796600Y-57902300D03*
D11*
X73755440Y-59003380D03*
X71055440Y-59003380D03*
X91950800Y-87852000D03*
X94650800Y-87852000D03*
D24*
X104477000Y-70246000D03*
X104477000Y-72946000D03*
X102445000Y-84376000D03*
X102445000Y-81676000D03*
X104477000Y-76342000D03*
X104477000Y-79042000D03*
D11*
X77218800Y-94964000D03*
X79918800Y-94964000D03*
X118621000Y-54324000D03*
X121321000Y-54324000D03*
X73980300Y-101695000D03*
X76680300Y-101695000D03*
D24*
X97195840Y-97927620D03*
X97195840Y-100627620D03*
X111048000Y-91470200D03*
X111048000Y-88770200D03*
X108541000Y-79550000D03*
X108541000Y-76850000D03*
D11*
X77218800Y-97377000D03*
X79918800Y-97377000D03*
X127257000Y-57880000D03*
X129957000Y-57880000D03*
X108832000Y-85926700D03*
X111532000Y-85926700D03*
D24*
X124939000Y-64508600D03*
X124939000Y-67208600D03*
D11*
X68121720Y-54670140D03*
X65421720Y-54670140D03*
X65177880Y-59003380D03*
X67877880Y-59003380D03*
X73916800Y-105124000D03*
X76616800Y-105124000D03*
X111189980Y-101180080D03*
X113889980Y-101180080D03*
D24*
X97110800Y-104028000D03*
X97110800Y-106728000D03*
D11*
X77725500Y-133682000D03*
X80425500Y-133682000D03*
X121161000Y-71596000D03*
X123861000Y-71596000D03*
X120645000Y-89828100D03*
X123345000Y-89828100D03*
D24*
X123019000Y-80406000D03*
X123019000Y-83106000D03*
D11*
X124360000Y-128394000D03*
X121660000Y-128394000D03*
X116062000Y-128589000D03*
X113362000Y-128589000D03*
X115968000Y-125572000D03*
X113268000Y-125572000D03*
X142911000Y-53816000D03*
X140211000Y-53816000D03*
X114686000Y-89757000D03*
X117386000Y-89757000D03*
D24*
X119463000Y-83106000D03*
X119463000Y-80406000D03*
D11*
X77726800Y-130016000D03*
X80426800Y-130016000D03*
X92759700Y-117070000D03*
X90059700Y-117070000D03*
X136053000Y-57626000D03*
X133353000Y-57626000D03*
X117460000Y-86287400D03*
X114760000Y-86287400D03*
D24*
X135973000Y-64508600D03*
X135973000Y-67208600D03*
X62029500Y-117183000D03*
X62029500Y-114483000D03*
D11*
X90057200Y-122414000D03*
X92757200Y-122414000D03*
D24*
X53197960Y-117607520D03*
X53197960Y-114907520D03*
X65026700Y-117183000D03*
X65026700Y-114483000D03*
D11*
X90029200Y-119869000D03*
X92729200Y-119869000D03*
X105089000Y-125666000D03*
X107789000Y-125666000D03*
X105119000Y-128589000D03*
X107819000Y-128589000D03*
D24*
X67870500Y-101040100D03*
X67870500Y-98340100D03*
D11*
X89062800Y-91408000D03*
X86362800Y-91408000D03*
X70717900Y-83576400D03*
X68017900Y-83576400D03*
D22*
X82810800Y-93884000D03*
X82810800Y-91384000D03*
D23*
X92050800Y-91408000D03*
X94550800Y-91408000D03*
D22*
X98088900Y-88135300D03*
X98088900Y-90635300D03*
X108541000Y-71108000D03*
X108541000Y-73608000D03*
X94824800Y-98032000D03*
X94824800Y-100532000D03*
D23*
X102634300Y-97265940D03*
X100134300Y-97265940D03*
X105767000Y-82772000D03*
X108267000Y-82772000D03*
D11*
X79969800Y-91592600D03*
X77269800Y-91592600D03*
D23*
X70228980Y-68307400D03*
X67728980Y-68307400D03*
X94959300Y-95237500D03*
X97459300Y-95237500D03*
X115082200Y-68769680D03*
X117582200Y-68769680D03*
D22*
X85668300Y-68611000D03*
X85668300Y-66111000D03*
D25*
X123142000Y-103340000D03*
X123792000Y-103340000D03*
X124442000Y-103340000D03*
X125092000Y-103340000D03*
X125742000Y-103340000D03*
X126392000Y-103340000D03*
X127042000Y-103340000D03*
X127692000Y-103340000D03*
X128342000Y-103340000D03*
X128992000Y-103340000D03*
X128992000Y-108940000D03*
X128342000Y-108940000D03*
X127692000Y-108940000D03*
X127042000Y-108940000D03*
X126392000Y-108940000D03*
X125742000Y-108940000D03*
X125092000Y-108940000D03*
X124442000Y-108940000D03*
X123792000Y-108940000D03*
X123142000Y-108940000D03*
D24*
X60283960Y-139189520D03*
X60283960Y-136489520D03*
D22*
X62069200Y-79337400D03*
X62069200Y-76837400D03*
D23*
X70657200Y-90985500D03*
X68157200Y-90985500D03*
X70654700Y-80119400D03*
X68154700Y-80119400D03*
D22*
X173370000Y-51477000D03*
X173370000Y-53977000D03*
X173426000Y-142387000D03*
X173426000Y-139887000D03*
X46492360Y-142960860D03*
X46492360Y-140460860D03*
D13*
X63341700Y-86245100D03*
X65241700Y-86245100D03*
X64291700Y-84245100D03*
D11*
X83820400Y-112362000D03*
X81120400Y-112362000D03*
X64856800Y-89248200D03*
X62156800Y-89248200D03*
D22*
X78792500Y-104460000D03*
X78792500Y-106960000D03*
D14*
X67630200Y-87228900D03*
X70930200Y-87228900D03*
D10*
X65056200Y-80067600D03*
X65056200Y-76767600D03*
D26*
X57921300Y-75049600D03*
X57921300Y-78549600D03*
D11*
X110356000Y-109375000D03*
X113056000Y-109375000D03*
D14*
X113247000Y-105631000D03*
X109947000Y-105631000D03*
D17*
X119210000Y-110018000D03*
X119210000Y-111918000D03*
X121210000Y-110968000D03*
D24*
X120245000Y-105945000D03*
X120245000Y-103245000D03*
X116158000Y-109214000D03*
X116158000Y-111914000D03*
D10*
X72224100Y-124548000D03*
X72224100Y-127848000D03*
D14*
X57380340Y-103638800D03*
X54080340Y-103638800D03*
D10*
X93492500Y-140432000D03*
X93492500Y-137132000D03*
D11*
X67960700Y-76842800D03*
X70660700Y-76842800D03*
D27*
X56340400Y-85544900D03*
X60340400Y-85544900D03*
D22*
X164503000Y-73817000D03*
X164503000Y-71317000D03*
D23*
X158818000Y-74014800D03*
X161318000Y-74014800D03*
D22*
X159108000Y-57547600D03*
X159108000Y-60047600D03*
D23*
X148305000Y-63517000D03*
X150805000Y-63517000D03*
X150701000Y-60466400D03*
X148201000Y-60466400D03*
X166978000Y-64017300D03*
X164478000Y-64017300D03*
X164582000Y-60796600D03*
X167082000Y-60796600D03*
D22*
X162070000Y-60027300D03*
X162070000Y-57527300D03*
D23*
X164716000Y-57568300D03*
X167216000Y-57568300D03*
X150701260Y-54439000D03*
X148201260Y-54439000D03*
D28*
X167353000Y-68999800D03*
X167353000Y-71099800D03*
X148265000Y-69232900D03*
X148265000Y-67132900D03*
X164463000Y-68504000D03*
X164463000Y-66404000D03*
G36*
G01*
X160529000Y-69126800D02*
X160729000Y-69126800D01*
G75*
G02*
X160829000Y-69226800I0J-100000D01*
G01*
X160829000Y-70501800D01*
G75*
G02*
X160729000Y-70601800I-100000J0D01*
G01*
X160529000Y-70601800D01*
G75*
G02*
X160429000Y-70501800I0J100000D01*
G01*
X160429000Y-69226800D01*
G75*
G02*
X160529000Y-69126800I100000J0D01*
G01*
G37*
G36*
G01*
X159879000Y-69126800D02*
X160079000Y-69126800D01*
G75*
G02*
X160179000Y-69226800I0J-100000D01*
G01*
X160179000Y-70501800D01*
G75*
G02*
X160079000Y-70601800I-100000J0D01*
G01*
X159879000Y-70601800D01*
G75*
G02*
X159779000Y-70501800I0J100000D01*
G01*
X159779000Y-69226800D01*
G75*
G02*
X159879000Y-69126800I100000J0D01*
G01*
G37*
G36*
G01*
X159229000Y-69126800D02*
X159429000Y-69126800D01*
G75*
G02*
X159529000Y-69226800I0J-100000D01*
G01*
X159529000Y-70501800D01*
G75*
G02*
X159429000Y-70601800I-100000J0D01*
G01*
X159229000Y-70601800D01*
G75*
G02*
X159129000Y-70501800I0J100000D01*
G01*
X159129000Y-69226800D01*
G75*
G02*
X159229000Y-69126800I100000J0D01*
G01*
G37*
G36*
G01*
X158579000Y-69126800D02*
X158779000Y-69126800D01*
G75*
G02*
X158879000Y-69226800I0J-100000D01*
G01*
X158879000Y-70501800D01*
G75*
G02*
X158779000Y-70601800I-100000J0D01*
G01*
X158579000Y-70601800D01*
G75*
G02*
X158479000Y-70501800I0J100000D01*
G01*
X158479000Y-69226800D01*
G75*
G02*
X158579000Y-69126800I100000J0D01*
G01*
G37*
G36*
G01*
X157929000Y-69126800D02*
X158129000Y-69126800D01*
G75*
G02*
X158229000Y-69226800I0J-100000D01*
G01*
X158229000Y-70501800D01*
G75*
G02*
X158129000Y-70601800I-100000J0D01*
G01*
X157929000Y-70601800D01*
G75*
G02*
X157829000Y-70501800I0J100000D01*
G01*
X157829000Y-69226800D01*
G75*
G02*
X157929000Y-69126800I100000J0D01*
G01*
G37*
G36*
G01*
X157279000Y-69126800D02*
X157479000Y-69126800D01*
G75*
G02*
X157579000Y-69226800I0J-100000D01*
G01*
X157579000Y-70501800D01*
G75*
G02*
X157479000Y-70601800I-100000J0D01*
G01*
X157279000Y-70601800D01*
G75*
G02*
X157179000Y-70501800I0J100000D01*
G01*
X157179000Y-69226800D01*
G75*
G02*
X157279000Y-69126800I100000J0D01*
G01*
G37*
G36*
G01*
X156629000Y-69126800D02*
X156829000Y-69126800D01*
G75*
G02*
X156929000Y-69226800I0J-100000D01*
G01*
X156929000Y-70501800D01*
G75*
G02*
X156829000Y-70601800I-100000J0D01*
G01*
X156629000Y-70601800D01*
G75*
G02*
X156529000Y-70501800I0J100000D01*
G01*
X156529000Y-69226800D01*
G75*
G02*
X156629000Y-69126800I100000J0D01*
G01*
G37*
G36*
G01*
X155979000Y-69126800D02*
X156179000Y-69126800D01*
G75*
G02*
X156279000Y-69226800I0J-100000D01*
G01*
X156279000Y-70501800D01*
G75*
G02*
X156179000Y-70601800I-100000J0D01*
G01*
X155979000Y-70601800D01*
G75*
G02*
X155879000Y-70501800I0J100000D01*
G01*
X155879000Y-69226800D01*
G75*
G02*
X155979000Y-69126800I100000J0D01*
G01*
G37*
G36*
G01*
X155329000Y-69126800D02*
X155529000Y-69126800D01*
G75*
G02*
X155629000Y-69226800I0J-100000D01*
G01*
X155629000Y-70501800D01*
G75*
G02*
X155529000Y-70601800I-100000J0D01*
G01*
X155329000Y-70601800D01*
G75*
G02*
X155229000Y-70501800I0J100000D01*
G01*
X155229000Y-69226800D01*
G75*
G02*
X155329000Y-69126800I100000J0D01*
G01*
G37*
G36*
G01*
X154679000Y-69126800D02*
X154879000Y-69126800D01*
G75*
G02*
X154979000Y-69226800I0J-100000D01*
G01*
X154979000Y-70501800D01*
G75*
G02*
X154879000Y-70601800I-100000J0D01*
G01*
X154679000Y-70601800D01*
G75*
G02*
X154579000Y-70501800I0J100000D01*
G01*
X154579000Y-69226800D01*
G75*
G02*
X154679000Y-69126800I100000J0D01*
G01*
G37*
G36*
G01*
X154679000Y-63401800D02*
X154879000Y-63401800D01*
G75*
G02*
X154979000Y-63501800I0J-100000D01*
G01*
X154979000Y-64776800D01*
G75*
G02*
X154879000Y-64876800I-100000J0D01*
G01*
X154679000Y-64876800D01*
G75*
G02*
X154579000Y-64776800I0J100000D01*
G01*
X154579000Y-63501800D01*
G75*
G02*
X154679000Y-63401800I100000J0D01*
G01*
G37*
G36*
G01*
X155329000Y-63401800D02*
X155529000Y-63401800D01*
G75*
G02*
X155629000Y-63501800I0J-100000D01*
G01*
X155629000Y-64776800D01*
G75*
G02*
X155529000Y-64876800I-100000J0D01*
G01*
X155329000Y-64876800D01*
G75*
G02*
X155229000Y-64776800I0J100000D01*
G01*
X155229000Y-63501800D01*
G75*
G02*
X155329000Y-63401800I100000J0D01*
G01*
G37*
G36*
G01*
X155979000Y-63401800D02*
X156179000Y-63401800D01*
G75*
G02*
X156279000Y-63501800I0J-100000D01*
G01*
X156279000Y-64776800D01*
G75*
G02*
X156179000Y-64876800I-100000J0D01*
G01*
X155979000Y-64876800D01*
G75*
G02*
X155879000Y-64776800I0J100000D01*
G01*
X155879000Y-63501800D01*
G75*
G02*
X155979000Y-63401800I100000J0D01*
G01*
G37*
G36*
G01*
X156629000Y-63401800D02*
X156829000Y-63401800D01*
G75*
G02*
X156929000Y-63501800I0J-100000D01*
G01*
X156929000Y-64776800D01*
G75*
G02*
X156829000Y-64876800I-100000J0D01*
G01*
X156629000Y-64876800D01*
G75*
G02*
X156529000Y-64776800I0J100000D01*
G01*
X156529000Y-63501800D01*
G75*
G02*
X156629000Y-63401800I100000J0D01*
G01*
G37*
G36*
G01*
X157279000Y-63401800D02*
X157479000Y-63401800D01*
G75*
G02*
X157579000Y-63501800I0J-100000D01*
G01*
X157579000Y-64776800D01*
G75*
G02*
X157479000Y-64876800I-100000J0D01*
G01*
X157279000Y-64876800D01*
G75*
G02*
X157179000Y-64776800I0J100000D01*
G01*
X157179000Y-63501800D01*
G75*
G02*
X157279000Y-63401800I100000J0D01*
G01*
G37*
G36*
G01*
X157929000Y-63401800D02*
X158129000Y-63401800D01*
G75*
G02*
X158229000Y-63501800I0J-100000D01*
G01*
X158229000Y-64776800D01*
G75*
G02*
X158129000Y-64876800I-100000J0D01*
G01*
X157929000Y-64876800D01*
G75*
G02*
X157829000Y-64776800I0J100000D01*
G01*
X157829000Y-63501800D01*
G75*
G02*
X157929000Y-63401800I100000J0D01*
G01*
G37*
G36*
G01*
X158579000Y-63401800D02*
X158779000Y-63401800D01*
G75*
G02*
X158879000Y-63501800I0J-100000D01*
G01*
X158879000Y-64776800D01*
G75*
G02*
X158779000Y-64876800I-100000J0D01*
G01*
X158579000Y-64876800D01*
G75*
G02*
X158479000Y-64776800I0J100000D01*
G01*
X158479000Y-63501800D01*
G75*
G02*
X158579000Y-63401800I100000J0D01*
G01*
G37*
G36*
G01*
X159229000Y-63401800D02*
X159429000Y-63401800D01*
G75*
G02*
X159529000Y-63501800I0J-100000D01*
G01*
X159529000Y-64776800D01*
G75*
G02*
X159429000Y-64876800I-100000J0D01*
G01*
X159229000Y-64876800D01*
G75*
G02*
X159129000Y-64776800I0J100000D01*
G01*
X159129000Y-63501800D01*
G75*
G02*
X159229000Y-63401800I100000J0D01*
G01*
G37*
G36*
G01*
X159879000Y-63401800D02*
X160079000Y-63401800D01*
G75*
G02*
X160179000Y-63501800I0J-100000D01*
G01*
X160179000Y-64776800D01*
G75*
G02*
X160079000Y-64876800I-100000J0D01*
G01*
X159879000Y-64876800D01*
G75*
G02*
X159779000Y-64776800I0J100000D01*
G01*
X159779000Y-63501800D01*
G75*
G02*
X159879000Y-63401800I100000J0D01*
G01*
G37*
G36*
G01*
X160529000Y-63401800D02*
X160729000Y-63401800D01*
G75*
G02*
X160829000Y-63501800I0J-100000D01*
G01*
X160829000Y-64776800D01*
G75*
G02*
X160729000Y-64876800I-100000J0D01*
G01*
X160529000Y-64876800D01*
G75*
G02*
X160429000Y-64776800I0J100000D01*
G01*
X160429000Y-63501800D01*
G75*
G02*
X160529000Y-63401800I100000J0D01*
G01*
G37*
D17*
X142947080Y-69633240D03*
X142947080Y-71533240D03*
X144947080Y-70583240D03*
D29*
X153703000Y-130171000D03*
X151803000Y-130171000D03*
X152753000Y-132271000D03*
X145463000Y-132271000D03*
X147363000Y-132271000D03*
X146413000Y-130171000D03*
D11*
X92729200Y-114363000D03*
X90029200Y-114363000D03*
X141789000Y-109171000D03*
X144489000Y-109171000D03*
X161540000Y-76999300D03*
X158840000Y-76999300D03*
D24*
X151927760Y-69230680D03*
X151927760Y-66530680D03*
D11*
X141789000Y-114020000D03*
X144489000Y-114020000D03*
X151012000Y-125554000D03*
X148312000Y-125554000D03*
X144439000Y-111495000D03*
X141739000Y-111495000D03*
X141584000Y-125539000D03*
X144284000Y-125539000D03*
X150689500Y-57532720D03*
X147989500Y-57532720D03*
D24*
X156114000Y-60157800D03*
X156114000Y-57457800D03*
D10*
X167412000Y-149768000D03*
X165212000Y-149768000D03*
D24*
X115654020Y-105946380D03*
X115654020Y-103246380D03*
D17*
X66976700Y-138289520D03*
X66976700Y-136389520D03*
X64976700Y-137339520D03*
X56094580Y-111858320D03*
X56094580Y-109958320D03*
X54094580Y-110908320D03*
D24*
X58859620Y-109433820D03*
X58859620Y-112133820D03*
D30*
X86524800Y-71215000D03*
X86524800Y-72485000D03*
X86524800Y-73755000D03*
X86524800Y-75025000D03*
X91948800Y-75025000D03*
X91948800Y-73755000D03*
X91948800Y-72485000D03*
X91948800Y-71215000D03*
X67770660Y-65772480D03*
X67770660Y-64502480D03*
X67770660Y-63232480D03*
X67770660Y-61962480D03*
X73194660Y-61962480D03*
X73194660Y-63232480D03*
X73194660Y-64502480D03*
X73194660Y-65772480D03*
X106427000Y-87217000D03*
X106427000Y-88487000D03*
X106427000Y-89757000D03*
X106427000Y-91027000D03*
X101003000Y-91027000D03*
X101003000Y-89757000D03*
X101003000Y-88487000D03*
X101003000Y-87217000D03*
X112179000Y-71977000D03*
X112179000Y-73247000D03*
X112179000Y-74517000D03*
X112179000Y-75787000D03*
X117603000Y-75787000D03*
X117603000Y-74517000D03*
X117603000Y-73247000D03*
X117603000Y-71977000D03*
M02*
